/* XPM */
static char * door2_xpm[] = {
"64 64 180 2",
"  	c #896933",
". 	c #AF9550",
"+ 	c #AF9651",
"@ 	c #AF9650",
"# 	c #AA8E47",
"$ 	c #A98E47",
"% 	c #AE934C",
"& 	c #AE934D",
"* 	c #AA8F47",
"= 	c #B09751",
"- 	c #6C4520",
"; 	c #916D38",
"> 	c #906C36",
", 	c #8A6933",
"' 	c #8A6932",
") 	c #906C35",
"! 	c #8F6C35",
"~ 	c #7C5D2C",
"{ 	c #916E38",
"] 	c #8B6A34",
"^ 	c #6B4420",
"/ 	c #896832",
"( 	c #8F6B35",
"_ 	c #906D38",
": 	c #7C5C2C",
"< 	c #926E38",
"[ 	c #906C37",
"} 	c #926E39",
"| 	c #8E6A35",
"1 	c #7B5C2C",
"2 	c #916C38",
"3 	c #775327",
"4 	c #785327",
"5 	c #7E5629",
"6 	c #7F572A",
"7 	c #81582B",
"8 	c #81592C",
"9 	c #81582C",
"0 	c #7F562A",
"a 	c #6A4C23",
"b 	c #906C38",
"c 	c #A48747",
"d 	c #151515",
"e 	c #896732",
"f 	c #A28543",
"g 	c #80582B",
"h 	c #593D1C",
"i 	c #7A5B2B",
"j 	c #77582A",
"k 	c #78592A",
"l 	c #8F6D35",
"m 	c #674A22",
"n 	c #7B5B2B",
"o 	c #937238",
"p 	c #644721",
"q 	c #9A763B",
"r 	c #754722",
"s 	c #A48847",
"t 	c #8F6C38",
"u 	c #3E3B38",
"v 	c #3D3A38",
"w 	c #9E813F",
"x 	c #A38644",
"y 	c #896936",
"z 	c #858483",
"A 	c #858585",
"B 	c #724621",
"C 	c #8E6B37",
"D 	c #71706F",
"E 	c #A58848",
"F 	c #906D3A",
"G 	c #716F6D",
"H 	c #71716F",
"I 	c #754723",
"J 	c #A68948",
"K 	c #9D803F",
"L 	c #A48744",
"M 	c #916E3A",
"N 	c #AE9651",
"O 	c #734621",
"P 	c #8F6A35",
"Q 	c #886832",
"R 	c #886732",
"S 	c #644821",
"T 	c #634721",
"U 	c #694C23",
"V 	c #7B5C2B",
"W 	c #654822",
"X 	c #775729",
"Y 	c #9F7D3E",
"Z 	c #A28544",
"` 	c #8E6B35",
" .	c #8E6A34",
"..	c #9E823F",
"+.	c #A68848",
"@.	c #9D813F",
"#.	c #7A5B2C",
"$.	c #785428",
"%.	c #81592D",
"&.	c #835A2C",
"*.	c #825A2C",
"=.	c #82592C",
"-.	c #795428",
";.	c #754825",
">.	c #464442",
",.	c #444342",
"'.	c #454342",
").	c #484542",
"!.	c #8E6B38",
"~.	c #754824",
"{.	c #454241",
"].	c #2E2E2E",
"^.	c #312F2E",
"/.	c #2F2E2D",
"(.	c #424242",
"_.	c #484543",
":.	c #8A6832",
"<.	c #8F6B36",
"[.	c #AD924C",
"}.	c #8F6B37",
"|.	c #543A1A",
"1.	c #1F1C1A",
"2.	c #34312D",
"3.	c #795B2C",
"4.	c #543B1B",
"5.	c #1E1B19",
"6.	c #2E2D2D",
"7.	c #896932",
"8.	c #A48644",
"9.	c #3F3C38",
"0.	c #3E3C39",
"a.	c #553C1B",
"b.	c #AE944F",
"c.	c #231F1A",
"d.	c #35312D",
"e.	c #654922",
"f.	c #78582A",
"g.	c #906E35",
"h.	c #7E5D2E",
"i.	c #7E5D2D",
"j.	c #7D5C2D",
"k.	c #694B23",
"l.	c #7B5D30",
"m.	c #848483",
"n.	c #795427",
"o.	c #906D39",
"p.	c #8B6A33",
"q.	c #9F8240",
"r.	c #80582A",
"s.	c #896834",
"t.	c #706F6D",
"u.	c #A08240",
"v.	c #A48745",
"w.	c #9F823F",
"x.	c #9F813F",
"y.	c #AD934E",
"z.	c #664922",
"A.	c #9C783C",
"B.	c #8F6C36",
"C.	c #8A6A33",
"D.	c #7B5D2C",
"E.	c #77592A",
"F.	c #775829",
"G.	c #896833",
"H.	c #A88D46",
"I.	c #3D3C39",
"J.	c #81582A",
"K.	c #906E36",
"L.	c #947338",
"M.	c #77592C",
"N.	c #AE9551",
"O.	c #AE9550",
"P.	c #583C1B",
"Q.	c #543B1A",
"R.	c #4C3719",
"S.	c #583D1C",
"T.	c #5C3D1D",
"U.	c #5D3D1D",
"V.	c #593E1C",
"W.	c #5A3E1C",
"  . + + + + @ @ @ + @ @ @ @ # $ % & & @ + @ * $ $ $ $ $ * @ @ = = @ @ * $ $ $ $ $ * @ + @ & & % $ # @ @ @ @ + @ @ @ + + + + .   ",
"- ; > > > > , , , > , , , , ' , , , , , > > ) ! ~ ! ) ) { , ] * * ] , { ) ) ! ~ ! ) > > , , , , , ' , , , , > , , , > > > > ; - ",
"^ / / / / / ; ; ( ( ( ( ; _ : ( ( ( ( ( / / / / / / / / ; ; < & & < ; ; / / / / / / / / ( ( ( ( ( : _ ; ( ( ( ( ; ; / / / / / ^ ",
"^ [ ; ; ; ; ; ; ; ; ; ; ; ; ; ; ; ; ; ; ; ; ; ; ; ; ; ; ; ; } @ @ } ; ; ; ; ; ; ; ; ; ; ; ; ; ; ; ; ; ; ; ; ; ; ; ; ; ; ; ; [ ^ ",
"^ [ ; ( ( ( ( | 1 / / / / / ; ; / / / ( ( ; 2 / / / / / / / { @ @ { / / / / / / / 2 ; ( ( / / / ; ; / / / / / 1 | ( ( ( ( ; [ ^ ",
"^ / / / / ~ 3 4 5 6 6 6 6 6 7 ( _ ~ 8 8 9 6 6 6 6 0 a | ( / , * * , / ( | a 0 6 6 6 6 9 8 8 ~ _ ( 7 6 6 6 6 6 5 4 3 ~ / / / / ^ ",
"^ [ _ b ; c d d d d d d d d 3 e ( f d d d d d d d d g [ _ b { @ @ { b _ [ g d d d d d d d d f ( e 3 d d d d d d d d c ; b _ [ ^ ",
"h i 1 j k l d d d d d d d d m n 1 o d d d d d d d d p j j j j q q j j j j p d d d d d d d d o 1 n m d d d d d d d d l k j 1 i h ",
"r [ _ b ; c d d d d d d d d 9 [ , s d d d d d d d d g [ b t u v v u t b [ g d d d d d d d d s , [ 9 d d d d d d d d c ; b _ [ r ",
"^ / / / , w d d d d d d d d 6 ( , x d d d d d d d d 4 / / y z A A z y / / 4 d d d d d d d d x , ( 6 d d d d d d d d w , / / / ^ ",
"B | ( ( ! x d d d d d d d d 4 / ' w d d d d d d d d 0 ( ( C D A A D C ( ( 0 d d d d d d d d w ' / 4 d d d d d d d d x ! ( ( | B ",
"^ / / / , E d d d d d d d d 8 [ , E d d d d d d d d 4 b ; F G H H G F ; b 4 d d d d d d d d E , [ 8 d d d d d d d d E , / / / ^ ",
"I [ ; ; ; J x x x w w w o K ~ / ' L x w w w x E E c : _ ; ; M N N M ; ; _ : c E E x w w w x L ' / ~ K o w w w x x x J ; ; ; [ I ",
"O P ( / / , , , , ' ( ! ( ! ; ; / { { ; ; ; { { { ; 1 / / / > & & > / / / 1 ; { { { ; ; ; { { / ; ; ! ( ! ( ' , , , , / / ( P O ",
"r [ ; _ b b b [ | | / Q / [ b _ / _ | | | | / / / / R / b _ { @ @ { _ b / R / / / / | | | | _ / _ b [ / Q / | | [ b b b _ ; [ r ",
"h i 1 1 j k S T T T T T m m U n V 1 S T T T T T T T W X j V ~ Y Y ~ V j X W T T T T T T T S 1 V n U m m T T T T T S k j 1 1 i h ",
"^ [ ; ; ; c d d d d d d d d 3 / ; Z d d d d d d d d 3 R R / { @ @ { / R R 3 d d d d d d d d Z ; / 3 d d d d d d d d c ; ; ; [ ^ ",
"^ [ ( ( ! x d d d d d d d d 6 ` , w d d d d d d d d 0  .: _ } @ @ } _ :  .0 d d d d d d d d w , ` 6 d d d d d d d d x ! ( ( [ ^ ",
"^ / / / , w d d d d d d d d 6 ( ! x d d d d d d d d 4 / _ ; > & & > ; _ / 4 d d d d d d d d x ! ( 6 d d d d d d d d w , / / / ^ ",
"^ | ( ; { E d d d d d d d d 6 ; { E d d d d d d d d 9 ( ( ( , * * , ( ( ( 9 d d d d d d d d E { ; 6 d d d d d d d d E { ; ( | ^ ",
"^ [ ; ( ! x d d d d d d d d 9 ; ! x d d d d d d d d 4 / / / { @ @ { / / / 4 d d d d d d d d x ! ; 9 d d d d d d d d x ! ( ; [ ^ ",
"^ / / / , ..d d d d d d d d 6 ( , ..d d d d d d d d 6 ( ( ( , * * , ( ( ( 6 d d d d d d d d .., ( 6 d d d d d d d d .., / / / ^ ",
"^ [ b b ; +.E E E E x w w @./ / ; J E E E E E E x Z ; _ _ _ { @ @ { _ _ _ ; Z x E E E E E E J ; / / @.w w x E E E E +.; b b [ ^ ",
"h i j j j k k k ~ ~ ~ 1 1 k V j j ~ k k k k k k ~ ~ 1 j j j ~ Y Y ~ j j j 1 ~ ~ k k k k k k ~ j j V k 1 1 ~ ~ ~ k k k j j j i h ",
"r [ b b b b _ ; _ ( ` ` ` ` _ b / [ / / / / b b _ _ _ b b b { @ @ { b b b _ _ _ b b / / / / [ / b _ ` ` ` ` ( _ ; _ b b b b [ r ",
"^ / / / / / ; ; ( / / / / / / ( / ( ( ( ; ; / / / / / / / / , * * , / / / / / / / / ; ; ( ( ( / ( / / / / / / ( ; ; / / / / / ^ ",
"O | ` : ` ` ( ( ( ( | 1 | ( / / / / / / ( ; [ 1 | ` ` ( ( ( < @ @ < ( ( ( ` ` | 1 [ ; ( / / / / / / ( | 1 | ( ( ( ( ` ` : ` | O ",
"I [ ( R R #.$.%.%.&.*.=.*.*.*.[ / ~ *.*.*.*.-.-.-.-.-.e / ; } @ @ } ; / e -.-.-.-.-.*.*.*.*.~ / [ *.*.*.=.*.&.%.%.$.#.R R ( [ I ",
"^ / [ ;.>.,.,.'.).!./ / / R -./ ' x ( ( / / b b b [ =.: b ; < & & < ; b : =.[ b b b / / ( ( x ' / -.R / / / !.).'.,.,.>.;.[ / ^ ",
"O  .~.{.].^./.].(._.| ( ( 1 =.b , J { :.; ; ( ( ( ( *.[ / / <.[.[.<./ / [ *.( ( ( ( ; ; :.{ J , b =.1 ( ( | _.(.]./.^.].{.~. .O ",
"r }.|.1.2.3.4.5.6.'.R / _ [ *.[ 7.8.( _ ; _ / / / e -./ b t 9.0.0.9.t b / -.e / / / _ ; _ ( 8.7.[ *.[ _ / R '.6.5.4.3.2.1.|.}.r ",
"h i a.a.! b._ 4.c.d.#.V 1 j e.i f.g.h.i.j j j.j j.j.k.i V l.m.A A m.l.V i k.j.j.j j.j j i.h.g.f.i e.j 1 V #.d.c.4._ b.! a.a.i h ",
"^ [ [ [ { J { [ [ b _ _ _ [ -.e ( 8.( _ _ b / / Q e n.e / o.D A A D o./ e n.e Q / / b _ _ ( 8.( e -.[ _ _ _ b [ [ { J { [ [ [ ^ ",
"^ [ ( ( ! L p., , ! , , , , -./ ' q., , ! ! ! ( ~ ( r.( ; s.t.D D t.s.; ( r.( ~ ( ! ! ! , , q.' / -., , , , ! , , p.L ! ( ( [ ^ ",
"^ / / / , u.J J v.L L v.J E ~ ( ! L L L q.q.q.q.w.x.~ / ; ; M y.y.M ; ; / ~ x.w.q.q.q.q.L L L ! ( ~ E J v.L L v.J J u., / / / ^ ",
"^ [ ; ; ; ; { { ; { { { { { ; ; ; { { { ; { { ; ; ; _ ; ; ; } @ @ } ; ; ; _ ; ; ; { { ; { { { ; ; ; { { { { { ; { { ; ; ; ; [ ^ ",
"^ [ ; ( ( ( ( ( : / / / / / ; ; ( ( ( ( ( ; ; / / / / / / / { @ @ { / / / / / / / ; ; ( ( ( ( ( ; ; / / / / / : ( ( ( ( ( ; [ ^ ",
"^ / / / / / / / ( ( ` ( ( ( ( ( ; ; ; ; ; ( ( ( ( ` : ( ( / , * * , / ( ( : ` ( ( ( ( ; ; ; ; ; ( ( ( ( ( ` ( ( / / / / / / / ^ ",
"^ [ _ b b b b b b [ 1 R / / / / ( ( ` b b b b b | | [ _ _ b { @ @ { b _ _ [ | | b b b b b ` ( ( / / / / R 1 [ b b b b b b _ [ ^ ",
"h i 1 j j k z.e.e.e.W e.U U U n V 1 U U k.U U z.e.U z.j j j k A.A.k j j j z.U e.z.U U k.U U 1 V n U U U e.W e.e.e.z.k j j 1 i h ",
"r [ _ b ; E ; b | | | | |  .*.[ , E / R V R [ b b [ =.[ b b { @ @ { b b [ =.[ b b [ R V R / E , [ *. .| | | | | b ; E ; b _ [ r ",
"^ / / / , u.; ; : / / / / / r.( , L ! ( ; ; :./ / / -./ / / , * * , / / / -./ / / :.; ; ( ! L , ( r./ / / / / : ; ; u., / / / ^ ",
"B | ( ( ! L > ( ( ( ( ( ( / -./ ' q., / ; ; ; ; ( ` r.( ( ( { @ @ { ( ( ( r.` ( ; ; ; ; / , q.' / -./ ( ( ( ( ( ( > L ! ( ( | B ",
"^ / / / , J { ; ; ; ; ; ; b *.[ , J { ; ; ( / / / / -.2 ; ; , * * , ; ; 2 -./ / / / ( ; ; { J , [ *.b ; ; ; ; ; ; { J , / / / ^ ",
"I [ ; ; { J B.( ( / / / : / -./ ' v.! / / / ( ; ; ; *.; ; ; < @ @ < ; ; ; *.; ; ; ( / / / ! v.' / -./ : / / / ( ( B.J { ; ; [ I ",
"O P ( / , q.C., , , ( ! ( ( *.b , J } { { { ; { { ; a / / / > & & > / / / a ; { { ; { { { } J , b *.( ( ! ( , , , C.q., / ( P O ",
"r [ ; _ ; J J J L L q.w.q.E ~ [ , J L L L L q.w.w.w V / b _ { @ @ { _ b / V w w.w.q.L L L L J , [ ~ E q.w.q.L L J J J ; _ ; [ r ",
"h i 1 1 j k k k k k k k 1 D.i V V ~ k k k k k k k E.F.F.j V ~ Y Y ~ V j F.F.E.k k k k k k k ~ V V i D.1 k k k k k k k j 1 1 i h ",
"^ [ ; ; _ _ b b [ b b b b / / / [ ( b b _ b / / / / / / R / { @ @ { / R / / / / / / b _ b b ( [ / / / b b b b [ b b _ _ ; ; [ ^ ",
"^ [ ( ( ( ( / / : / / / / ( ( ( / / / / ( ( ( ( ( ( ( ` : _ } @ @ } _ : ` ( ( ( ( ( ( ( / / / / ( ( ( / / / / : / / ( ( ( ( [ ^ ",
"^ / / / / / b 2 | ( 2 2 2 ; ( ( ( | 1 | / / / / / / / / _ ; > & & > ; _ / / / / / / / / | 1 | ( ( ( ; 2 2 2 ( | 2 b / / / / / ^ ",
"^ | ( ; _ ~ *.&.*.*.*.7 7 7 7 ; ; ~ *.&.*.*.*.*.=.*.*.( ( ( G.H.H.G.( ( ( *.*.=.*.*.*.*.&.*.~ ; ; 7 7 7 7 *.*.*.&.*.~ _ ; ( | ^ ",
"^ [ ; ( ! x ( ( / / / / / e *.; ! x ( ( / / / / 1 R -./ / R u I.I.u R / / -.R 1 / / / / ( ( x ! ; *.e / / / / / ( ( x ! ( ; [ ^ ",
"^ / / / , q.~ / ( ( ( ( ( ` J.( , q., / ( ( ( ( ( ( 7 ( ( t z A A z t ( ( 7 ( ( ( ( ( ( / , q., ( J.` ( ( ( ( ( / ~ q., / / / ^ ",
"^ [ b b ; +.; b ; _ ( / / R n.e ; +.; b _ _ _ _ ( | *.[ _ F D A A D F _ [ *.| ( _ _ _ _ b ; +.; e n.R / / ( _ ; b ; +.; b b [ ^ ",
"h i j j k K.k j 1 1 V V V F.k.F.k L.k j j j j j 1 n k.j j M.t.H H t.M.j j k.n 1 j j j j j k L.k F.k.F.V V V 1 1 j k K.k j j i h ",
"r [ b b ; +.; ; _ ( ` ` ` | =.[ , E 7./ / / b b _ [ *.[ b _ M N.N.M _ b [ *.[ _ b b / / / 7.E , [ =.| ` ` ` ( _ ; ; +.; b b [ r ",
"^ / / / , u.< { ! , , , , / -.| , L > ! { { , , , 7.-./ / / , * * , / / / -.7., , , { { ! > L , | -./ , , , , ! { < u., / / / ^ ",
"O | ` : ( L L v.L L v.J v.x ~ / ' q.q.q.v.J J J L x ~ ` ( ( < @ @ < ( ( ` ~ x L J J J v.q.q.q.' / ~ x v.J v.L L v.L L ( : ` | O ",
"I [ ( / / , , { { { { { { { _ ; / ; ; ; { { , , , , / / / ; } @ @ } ; / / / , , , , { { ; ; ; / ; _ { { { { { { { , , / / ( [ I ",
"^ / / ( ; ; ( ( ( / / / / / / / / ( ( ( / :.; ; ; ; _ ~ b ; < & & < ; b ~ _ ; ; ; ; :./ ( ( ( / / / / / / / / ( ( ( ; ; ( / / ^ ",
"O | ( / / / / / / / ( ( ( : _ ; / ; ; :.; ; ( ( ( ( ; b / / > & & > / / b ; ( ( ( ( ; ; :.; ; / ; _ : ( ( ( / / / / / / / ( | O ",
"r [ [ [ [ [ [ [ |  .R R [ [ b [ R | | [ b [ e R R R R / [ [ ; O.O.; [ [ / R R R R e [ b [ | | R [ b [ [ R R  .| [ [ [ [ [ [ [ r ",
"P.h Q.Q.Q.Q.R.Q.Q.Q.S.S.h Q.Q.h Q.T.U.T.Q.Q.T.Q.T.T.h S.V.V.W.1 1 W.V.V.S.h T.T.Q.T.Q.Q.T.U.T.Q.h Q.Q.h S.S.Q.Q.Q.R.Q.Q.Q.Q.h P."};
