/* XPM */
static char * key_xpm[] = {
"64 64 238 2",
"  	c #000000",
". 	c #070501",
"+ 	c #0D0901",
"@ 	c #0C0901",
"# 	c #020200",
"$ 	c #020202",
"% 	c #02070E",
"& 	c #8C7720",
"* 	c #C7AA2A",
"= 	c #D0B22C",
"- 	c #CFB12C",
"; 	c #BA9F28",
"> 	c #6F5F1C",
", 	c #00000D",
"' 	c #020203",
") 	c #483D16",
"! 	c #FBD734",
"~ 	c #FAD634",
"{ 	c #C6AA2A",
"] 	c #554818",
"^ 	c #030405",
"/ 	c #141311",
"( 	c #DBBC2E",
"_ 	c #F9D534",
": 	c #F8D433",
"< 	c #EAC831",
"[ 	c #5E4D19",
"} 	c #040506",
"| 	c #060606",
"1 	c #9C8523",
"2 	c #FCD834",
"3 	c #877420",
"4 	c #75641D",
"5 	c #958022",
"6 	c #FACC30",
"7 	c #EBB52A",
"8 	c #5D4718",
"9 	c #030303",
"0 	c #14130F",
"a 	c #D8B92D",
"b 	c #C0A429",
"c 	c #00000F",
"d 	c #030304",
"e 	c #0E0E0F",
"f 	c #9F8823",
"g 	c #F5C82F",
"h 	c #F9BF2C",
"i 	c #CD9D26",
"j 	c #00030F",
"k 	c #1C1912",
"l 	c #EFCC32",
"m 	c #76651D",
"n 	c #010101",
"o 	c #0F0E0C",
"p 	c #9F7A1F",
"q 	c #F8BE2C",
"r 	c #7D5F1B",
"s 	c #2A2413",
"t 	c #F9D533",
"u 	c #534717",
"v 	c #050A0F",
"w 	c #D1A026",
"x 	c #C59725",
"y 	c #110E0A",
"z 	c #191712",
"A 	c #EAC931",
"B 	c #7E6C1E",
"C 	c #89681D",
"D 	c #E0AB28",
"E 	c #292010",
"F 	c #12110E",
"G 	c #D1B22C",
"H 	c #B99E28",
"I 	c #04060D",
"J 	c #7A5D1B",
"K 	c #F6BD2C",
"L 	c #E4AF29",
"M 	c #2D2310",
"N 	c #050505",
"O 	c #988222",
"P 	c #080706",
"Q 	c #020303",
"R 	c #7C5F1B",
"S 	c #E4AE29",
"T 	c #2D2210",
"U 	c #342D15",
"V 	c #F8D534",
"W 	c #ECBF2D",
"X 	c #82631C",
"Y 	c #00010D",
"Z 	c #C89A25",
"` 	c #D3A126",
" .	c #1B160D",
"..	c #231E12",
"+.	c #C6A92A",
"@.	c #FACA30",
"#.	c #F7BE2C",
"$.	c #BB8F23",
"%.	c #7E601C",
"&.	c #6B5118",
"*.	c #795C1B",
"=.	c #C49624",
"-.	c #FAC02C",
";.	c #906E1D",
">.	c #040404",
",.	c #2D2713",
"'.	c #CBAE2B",
").	c #F5BC2B",
"!.	c #101010",
"~.	c #1F1B11",
"{.	c #CAAD2B",
"].	c #FAC930",
"^.	c #ECB42A",
"/.	c #D0A026",
"(.	c #413214",
"_.	c #1B1811",
":.	c #C5A92A",
"<.	c #AA8121",
"[.	c #1A1712",
"}.	c #95721E",
"|.	c #CA9B25",
"1.	c #E1AC28",
"2.	c #EFB72A",
"3.	c #D2A126",
"4.	c #97731E",
"5.	c #131110",
"6.	c #030202",
"7.	c #2C2513",
"8.	c #C9AC2B",
"9.	c #F7BD2C",
"0.	c #A78020",
"a.	c #0A0B0E",
"b.	c #040303",
"c.	c #15110C",
"d.	c #251E11",
"e.	c #2D2413",
"f.	c #281F12",
"g.	c #1B160E",
"h.	c #262112",
"i.	c #CCAF2C",
"j.	c #FAC92F",
"k.	c #A88020",
"l.	c #010100",
"m.	c #181611",
"n.	c #AA8221",
"o.	c #A88021",
"p.	c #00040E",
"q.	c #2C2613",
"r.	c #CCAF2B",
"s.	c #F9C82F",
"t.	c #A77F20",
"u.	c #19150E",
"v.	c #06070A",
"w.	c #1C1911",
"x.	c #FABF2C",
"y.	c #A98121",
"z.	c #110F0E",
"A.	c #0A0B0D",
"B.	c #A18A24",
"C.	c #C5A82A",
"D.	c #00020E",
"E.	c #04060C",
"F.	c #9E8723",
"G.	c #FAD734",
"H.	c #FBD634",
"I.	c #100F0E",
"J.	c #DFBF2F",
"K.	c #1A150E",
"L.	c #FAC82F",
"M.	c #AF8621",
"N.	c #000101",
"O.	c #2A2412",
"P.	c #C8AB2B",
"Q.	c #F9C72F",
"R.	c #9F791F",
"S.	c #080808",
"T.	c #352D13",
"U.	c #CEB02C",
"V.	c #EFB72B",
"W.	c #634C19",
"X.	c #302913",
"Y.	c #B08721",
"Z.	c #685019",
"`.	c #000106",
" +	c #010202",
".+	c #3C3415",
"++	c #D5B72D",
"@+	c #FAC82E",
"#+	c #EAB32A",
"$+	c #423317",
"%+	c #02080E",
"&+	c #040405",
"*+	c #3C3315",
"=+	c #DBBB2E",
"-+	c #F9C62E",
";+	c #D9A627",
">+	c #3E2F15",
",+	c #000006",
"'+	c #AF9626",
")+	c #DBA828",
"!+	c #413215",
"~+	c #000005",
"{+	c #7C6A1E",
"]+	c #F5D133",
"^+	c #FAC72F",
"/+	c #CC9C25",
"(+	c #DEAA28",
"_+	c #D7A527",
":+	c #483715",
"<+	c #0C0C0A",
"[+	c #896A1D",
"}+	c #F3BB2B",
"|+	c #F3BA2B",
"1+	c #4B3A17",
"2+	c #E3AE29",
"3+	c #B08622",
"4+	c #0C0C0C",
"5+	c #07080A",
"6+	c #614B19",
"7+	c #6E5419",
"8+	c #C79825",
"9+	c #342916",
"0+	c #503D17",
"a+	c #AD8521",
"b+	c #2D2212",
"c+	c #171411",
"d+	c #F1B92B",
"e+	c #604918",
"f+	c #020304",
"g+	c #00020D",
"h+	c #030910",
"i+	c #C59724",
"j+	c #664E19",
"k+	c #C69825",
"l+	c #C49524",
"m+	c #251E12",
"n+	c #060707",
"o+	c #1E1708",
"                                                                                                                                ",
"                                                                                                                                ",
"                                                                                                                                ",
"                                                                                                                                ",
"                                                                                                                                ",
"                                                                                                                                ",
"                                                                                                                                ",
"                                                                                                                                ",
"                                                                                                                                ",
"                                                                                                                                ",
"                                                                                                                                ",
"                                                                                                                                ",
"                                                                                                                                ",
"                                                                                                                                ",
"                                                                                                                                ",
"                                                                                                                                ",
"                                                                                                                                ",
"                                                                                                                                ",
"                                                                                                                                ",
"                                                                                                                                ",
"                                                                                                                                ",
"                                                                                                                                ",
"                                                                                                                                ",
"                                                                                                                                ",
"                                                                                                                                ",
"                                                                          . + @ + #                                             ",
"                                                                    $ % & * = - = ; > , $                                       ",
"                                                                  ' ) = ! ! ! ! ! ! ~ { ] ^                                     ",
"                                                                  / ( ! ! ! _ : ~ ! ! ! < [ }                                   ",
"                                                                | 1 ! ! 2 * 3 4 5 = ~ ! 6 7 8 9                                 ",
"                                                                0 a ! ! b c $   d e f g h h i j                                 ",
"                                                                k l ! _ m n         o p q h h r n                               ",
"                                                              n s t ! : u             v w h h x y                               ",
"                                                                z A ! _ B n           ^ C q h D E                               ",
"                                                                F G ! ! H I             J K h L M                               ",
"                                                                N O ! ! : m P         Q R K h S T                               ",
"                                                                n U V ! ! W X Y '   n c Z h h `  .                              ",
"                                                              n ..+.! ! @.h #.$.%.&.*.=.h h -.;.>.                              ",
"                                                            n ,.'.! ! @.h h h h K ).K h h h w !.                                ",
"                                                          n ~.{.~ ! ].h h ^.h h h h h h h /.(.$                                 ",
"                                                        n _.:.! ! @.h h <.[.}.|.1.2.L 3.4.5.6.                                  ",
"                                                      n 7.8.! ! ].h 9.0.a.  b.c.d.e.f.g.>.                                      ",
"                                                    n h.i.~ ! j.h h k.g.l.                                                      ",
"                                                  n m.* ! ! j.h h n.%                                                           ",
"                                                n h.* ! ! j.h #.o.p.                                                            ",
"                                              n q.r.! ! s.h q t.u.                                                              ",
"                                          v.v.w.8.~ ! j.h x.y.z.n                                                               ",
"                                        A.1 B.C.! ! j.h q y.D.                                                                  ",
"                                      E.F.V ~ G.H.s.h 9.t.I.                                                                    ",
"                                      c J.! ! ! s.h h o.K.n                                                                     ",
"                                    n z 8.! ! L.h h M.p.                                                                        ",
"                                  N.O.P.! H.Q.h h h R.S.                                                                        ",
"                                N.T.U.G.H.Q.h h h V.W.9                                                                         ",
"                              $ X.G ! ! L.h K Y.|.Z.`.                                                                          ",
"                             +.+++! H.@+h h #+$+%+&+                                                                            ",
"                          n *+=+! H.-+h h h h ;+>+'                                                                             ",
"                          ,+'+! H.-+h h h h h x.)+!+9                                                                           ",
"                          ~+{+]+^+h h h h q /+(+h _+:+9                                                                         ",
"                            <+[+}+9.h h h |+8 1+2+h 3+4+                                                                        ",
"                              5+6+7+8+h h h (+9+0+a+b+n                                                                         ",
"                                 +Q c+=.-.h d+e+f+g+$                                                                           ",
"                                      h+i+h K j+n                                                                               ",
"                                      n d.k+l+m+                                                                                ",
"                                        $ n+o+$                                                                                 "};
