/* XPM */
static char * map_wall10_xpm[] = {
"10 10 6 1",
" 	c #81A2DF",
".	c #7C9EDE",
"+	c #86A6E1",
"@	c #87A6E1",
"#	c #90ADE3",
"$	c #8BA9E2",
"  .  ...+ ",
" @.. ...+ ",
".@@  +# ..",
". ..$...@.",
"...@+. .#.",
" +. . ..$.",
" +..@ . ..",
".. . @....",
" # .  . $+",
" +..... +."};
