/* XPM */
static char * red_player10_xpm[] = {
"10 10 6 1",
" 	c #2E2E2E",
".	c #6A2A2A",
"+	c #A52323",
"@	c #DA1717",
"#	c #FB0303",
"$	c #FF0000",
"          ",
"          ",
"   .++.   ",
"  .@##@.  ",
"  +#$$#+  ",
"  +#$$#+  ",
"  .@##@.  ",
"   .++.   ",
"          ",
"          "};
