/* XPM */
static char *caf8d9ff3e374448f650a52d49ce3ed9T8DTeGriXFS8gaGO[] = {
/* columns rows colors chars-per-pixel */
"64 64 48 1 ",
"  c #02232F",
". c #02242F",
"X c #022533",
"o c #022737",
"O c #032738",
"+ c #02293B",
"@ c #032A3E",
"# c #032B40",
"$ c #042B41",
"% c #032C43",
"& c #042C43",
"* c #032D44",
"= c #042D45",
"- c #042F48",
"; c #04304B",
": c #04314D",
"> c #053351",
", c #053453",
"< c #053455",
"1 c #05375B",
"2 c #05385C",
"3 c #063B63",
"4 c #063B64",
"5 c #063C65",
"6 c #073E69",
"7 c #073F6C",
"8 c #07406E",
"9 c #074170",
"0 c #074374",
"q c #084272",
"w c #084376",
"e c #084476",
"r c #084578",
"t c #08467C",
"y c #08487F",
"u c #094A83",
"i c #094A84",
"p c #094C87",
"a c #094D8B",
"s c #0A4E8D",
"d c #0A4F90",
"f c #0A5092",
"g c #0A5296",
"h c #0B5398",
"j c #0B559B",
"k c #0B559C",
"l c #0B57A0",
"z c #0C57A1",
/* pixels */
"+%@@+@@@%=-==-=-=%=*=%@&#@#@@oOoOOo+++@o++++oo+o++oXooO+ooo@@%=-",
"@@@&@@@%%=;-===;-==:=%&#=%##OooXXoOoo+o@@@+oXO++o+ooXOXoOo++&-=;",
"@#@@=@##%--:-=;:-;;---%=%=&@@+ooooOoo+@+@@+OXoo+OooXXXXooO+#=--:",
"@@@@&@%%%->::;;:::;::-=-==#%@+Oooooooo+@@@@oXOooOOXooXo+O+@=*=-:",
"%@+O@##&;:>:-;:;:::::::--=%%#@+@+o+ooO+@@@@ooXXXoXoooooo+@#-;:;:",
"%@+Oo@#%==-::::>>:>>>:::-=#%#@@%#@+++++%@@@OoXooooo+OoO@@#=-::>:",
"-%+oo+@#==--->>>><<,>>>>;=&=##%=-#+@@+#@$@@++ooooO+@+O@@#=;>>>>>",
"=%@+++@&====-:>:,>>>>>>>:=%%&&--:=#@@@@-@@++++oX++@++@@@%-:>>,:>",
"-%@@+##=-----;:::><>>>::;=@@#%-;;=&@@#@@&@@@@+O+++@@@+##-:<<<<<>",
";&%#@@#=-::::;::::::>,,:-=#=%=;;=%##%%%=###%@@@@@+@@@@%=:><111<1",
";#@@+@#%;::>:>::>-::<<<:-*#=--;-=-=%=*=-=%&#&##@++##==-;,<112212",
"-=@@+@%*:::--::>>;;:,1<:=&==-=-**=-===:;-*&@%###@@==-:><11223233",
":=@@@#=->:---><1<:;><<>:-#@==*=%%--:;:>>:;%@=====%;:><2222454353",
">==***-::>:-;<1<<;;>:,>-#%@@@@@%-=:>><11>;=*=*--;;>1223556435655",
">;=;:::<><<>:<<<>:=::::-@OOOoO+@=-:><22<<:;--:::>124666876656663",
"1<>>>><<<111<1<,>:===--*@oOOoo+@#=:<<221<><:><<<2468999wq6667875",
"321112233321211,:=%*==*%@+O@@@#=%=:<111<1<111112569errrw98899886",
"553333566521121<:=%%=;*=#@@@#=;:-:>><111112222268wetutrr99q99w89",
"666666788522222<<>-;::-&@@%%-;>><>>><231111121259rtuiuyr99qererr",
"8999989q86333332<>::::;#%@#*:<1<<<<<<111<><11<259eyuiur9679errre",
"reerrrrew98433332<:==-=%##-:<22211,>121<<><<<<137etrrrq776wrttur",
"uuyyuuuutrw7324531:--:-==&;,23541<<125331,<1122369999q8767wetuut",
"iiuuiiaautew6366642<<1,:=&:,365322<1457931212222578q9q999eruiiut",
"uiiiafggsir9868wr9533531>:><24223311269w8432<112357889ertuadsatu",
"iaapaffggfure9wrre8669w63<<123222221368997532112366668riiafgfaiu",
"asssssfgggsauyttrreqerte7323325522<1367865552<<1355348ypsffgfsaa",
"sgjgghgjjjgfsiyrerrrruar975667983212456523541><2562269uisffssaii",
"sfjzkklkkkjfsutre9ettasyq868qtrw6333335512342<2686439ruaasaiaaii",
"afjllkhjggfaautrew99eyape89eruute9we93332353325776458riaaiuuiaas",
"uagjkhggfsaiyreerw98wyaue9wttuaaur9wr5223532136886558rufdiutyisf",
"risfgffffayrew8wwq9qeyur9rtyiafsuurq8766665114687656wusssauttuaf",
"erisgfaair97878wq899rttw9rewyusarrtetrte9r9223686767risaaaittups",
"9rysffsir734359re9qrtuuy95369ete68taduiiuur656656668euuiaiurruia",
"90tiaaiur632368ewwww9wtr9522236656usdiiytyr8653333599wruiutrrryu",
"w0rtyute96553356665323553211>:1226eyutrttr86312211588werw98889et",
"wwertrw865665331<21>::><>,,1:->215789989rr632<11<13588q97332569e",
"9wrurre8656621,::<:%%%=:;=:>;-:1135896569q6332<>:156655331224689",
"8rtrrreq6663<:=%%==@%@===;>1:-<1126898666865311><<33332<1113568w",
"wryreerrw963<:==%=&@%=;::<22<>23359eeereee652<><:>112<<>><234679",
"wrrertrtt9731<>:;-=##:1226763257769tyiyrrr6531<,>><1221>:><13567",
"79qqqerrtw652<>>:;--:<555786355656wtuitreeq753<>:>222221>:>>1236",
"676668rrw9642<<<<:::<38987853353367eyrww99w852,>:1222532<>::,<23",
"55223799q8631<<<<>>>16errwe62334355799qw768631>:>25535663<:::<<1",
"2<<11356565321<<<<>:18tuut94112333335555345511>>>368656632<::;=:",
":>;>1132233232211,:<149ee96312222211112232321<,>2488656532<:-*=&",
"-=;:><1113211122<,<<<156863323332<,,<<<<<<221>;:2368866631<:=#&@",
"%%=::<>>1<1<<11,>>>>>,1355532221>;::>:<<<1111>;:,256865542<>;-=&",
"==;>>>>:>>::,>:-:-::::>13535332,;--;-;>111<1<<:::1266555432<>;-%",
"-;:::::::::;;-*=-==-;;:<1223321:==*-*=><<<<<>>:;:>13355455221>:-",
":::::;;;:--=-%&=-#=-==;:>1121,>>-==-=-><1<>>:-=-:<12123555522<>:",
"::;--==*-%%%%#@#=%==%=%-><11><>::;-:=:<<1<>;=@&*=:>><<33666532<:",
":;=-==%%=%##@@@##%#@@@#%:,<,<<<>;;>:::>1<<:==+#@%===:<13567653<>",
":=-=====%=%&@++@@##@++@*;:>>><<>::-:<<,<::-;&@####%%-:,135787621",
"-=*--=;;--*&#+O@=@#+++@#%;:>:>>>-;;:><,>:;==@@@@@@@%-:>123567531",
"===:--;::-*=@+@%=@@+++@+#-;;:;::;::::><>:-=*@@@@@@@#=-:,<3333332",
"---;-;:-:--=###@%@@+@@+@#---=%-:;:::;:;;;;;-=###@@@@#==::<112222",
"-:::-:::--*=*%&%#@@@++o+@&=*&%=;;:::---:=;:-*%@###@@##%-::<,2211",
"><,::::::;--*=@@++@+oXoo@+##@#&:;:>:*==*---*=-&&##@@@#%=;:>>><11",
",<,>><>::--=%#@@o+OoXX.o+++@+@%-::;--*-%==%=*=##%@@@#&%%=;::>><<",
"1<<><><:::-=%#@+ooooX.XXoo+O++@%=*==%=@%=%%%%=&@@#@##%%-=---:><,",
"1<<<<,>::;-=#@@+XXoXX XXXOoo@@@#====#=@@#@##@#@@@@@#%==%=--=;:><",
"11<<<,:::--=@+oOOXoXXX XoXoOo+++@&==##@#@#@#@@#+@+@@@#=*=--=-=;>",
"<<<<>;;;-=*#+OoOooooXXXXooO@oo+++@=&%##@@@@@++O@++@@@@%*-=*%#==-",
"<,>::-==*%##@++oOO+ooXXXOo+Oo++++@=@#%&@#++ooo++@+@+@@==-=%==#*-"
};
