/* XPM */
static const char *dGhlcm9jaw__[] = {
/* columns rows colors chars-per-pixel */
"80 80 254 2 ",
"   c #170A0A",
".  c #36120E",
"X  c #2C1310",
"o  c #2F221F",
"O  c gray18",
"+  c #3D3634",
"@  c #4C1710",
"#  c #591D13",
"$  c #641F0E",
"%  c #4A2819",
"&  c #572B19",
"*  c #59301C",
"=  c #692918",
"-  c #752618",
";  c #683619",
":  c #78381B",
">  c #472C24",
",  c #583526",
"<  c #513830",
"1  c #673B27",
"2  c #783924",
"3  c #57423A",
"4  c #6D422C",
"5  c #79442A",
"6  c #694437",
"7  c #7B4B33",
"8  c #784936",
"9  c #734C3C",
"0  c #7D523C",
"q  c #6F5046",
"w  c #7A5645",
"e  c #676564",
"r  c #7A716F",
"t  c #832519",
"y  c #843B1D",
"u  c #853824",
"i  c #88372C",
"p  c #A33C2B",
"a  c #91421F",
"s  c #884727",
"d  c #8B4B2A",
"f  c #954C28",
"g  c #8A512F",
"h  c #98522B",
"j  c #834D34",
"k  c #884C36",
"l  c #9A4934",
"z  c #845136",
"x  c #8B5134",
"c  c #83533B",
"v  c #8B553C",
"b  c #87583E",
"n  c #8C593E",
"m  c #945434",
"M  c #9C5432",
"N  c #92563A",
"B  c #955A3C",
"V  c #9D5B39",
"C  c #A5562B",
"Z  c #B25D2B",
"A  c #A44535",
"S  c #A35C34",
"D  c #A75B39",
"F  c #B05E32",
"G  c #B9622C",
"H  c #AA623C",
"J  c #B8693C",
"K  c #C36C38",
"L  c #C6713C",
"P  c #845544",
"I  c #8C5B43",
"U  c #875A48",
"Y  c #845A4B",
"T  c #915147",
"R  c #945D43",
"E  c #965947",
"W  c #9A5E42",
"Q  c #985A52",
"!  c #A75B46",
"~  c #A7534D",
"^  c #8B624F",
"/  c #9C6245",
"(  c #95634B",
")  c #9A6648",
"_  c #9C644A",
"`  c #846353",
"'  c #8A6757",
"]  c #9C6B53",
"[  c #986957",
"{  c #99715C",
"}  c #A46445",
"|  c #AB6845",
" . c #A1664B",
".. c #A36A4D",
"X. c #AB6C4B",
"o. c #B26A43",
"O. c #B76C49",
"+. c #AF714D",
"@. c #BC724B",
"#. c #A46C53",
"$. c #AB6D52",
"%. c #A76A5A",
"&. c #B66853",
"*. c #AA7356",
"=. c #A3735C",
"-. c #AB735C",
";. c #B47353",
":. c #BB7654",
">. c #B6775A",
",. c #BD7B5C",
"<. c #AD5D65",
"1. c #937267",
"2. c #997767",
"3. c #A46A62",
"4. c #A67766",
"5. c #AB7A64",
"6. c #AE726D",
"7. c #AB7D6B",
"8. c #B37A65",
"9. c #B47967",
"0. c #BB7E63",
"q. c #BA7C6C",
"w. c #B97A74",
"e. c #C57449",
"r. c #CF784A",
"t. c #C67A53",
"y. c #C47C5B",
"u. c #D16C6F",
"i. c #C67A67",
"p. c #CF7472",
"a. c #BE815D",
"s. c #9A8276",
"d. c #AB816D",
"f. c #B78164",
"g. c #BE8364",
"h. c #B3826D",
"j. c #BB836C",
"k. c #A88576",
"l. c #B38573",
"z. c #BC8472",
"x. c #B98A76",
"c. c #BA937D",
"v. c #DB824F",
"b. c #C8815D",
"n. c #D7855A",
"m. c #E58C5B",
"M. c #C48263",
"N. c #CB8463",
"B. c #CA8567",
"V. c #C3856B",
"C. c #C3896D",
"Z. c #CC8B6C",
"A. c #D48867",
"S. c #DC8C64",
"D. c #D38C6B",
"F. c #D8916E",
"G. c #C38573",
"H. c #C48A75",
"J. c #CC8D72",
"K. c #C48A78",
"L. c #CB8D7B",
"P. c #D28D73",
"I. c #D68A7A",
"U. c #CD9175",
"Y. c #C2907A",
"T. c #CC937A",
"R. c #D49375",
"E. c #DC9474",
"W. c #D4947B",
"Q. c #D7967C",
"!. c #DC9B7D",
"~. c #E8956A",
"^. c #EC976C",
"/. c #E69A77",
"(. c #EC9D75",
"). c #E29C7B",
"_. c #ECA17C",
"`. c #F6A47B",
"'. c #F4A47C",
"]. c #D67582",
"[. c #968B86",
"{. c #B1958A",
"}. c #A49A98",
"|. c #B1A39C",
" X c #B6ACA8",
".X c #B6B0AD",
"XX c #CC9482",
"oX c #CA9986",
"OX c #C7948C",
"+X c #D29585",
"@X c #DB9B84",
"#X c #D79B89",
"$X c #D69D92",
"%X c #E29E87",
"&X c #E98C91",
"*X c #D6A18A",
"=X c #DBA38C",
"-X c #C7A295",
";X c #DAA392",
":X c #DCA895",
">X c #E7A587",
",X c #ECA383",
"<X c #E4A38B",
"1X c #EAA48C",
"2X c #ECAA8C",
"3X c #F4A682",
"4X c #F4AA86",
"5X c #F7AB88",
"6X c #F4AC8C",
"7X c #F8B18D",
"8X c #E3A593",
"9X c #E3AB94",
"0X c #ECAC94",
"qX c #E6AB9A",
"wX c #F2AD93",
"eX c #F4AE97",
"rX c #E9B196",
"tX c #ECB29A",
"yX c #F5B294",
"uX c #F9B494",
"iX c #F4B39B",
"pX c #F9B59A",
"aX c #F9B999",
"sX c #FABB9B",
"dX c #E59EA4",
"fX c #CDADA9",
"gX c #D9B4A7",
"hX c #C9BAB6",
"jX c #D7BDB5",
"kX c #EBACA5",
"lX c #EAB6A9",
"zX c #F5B7A6",
"xX c #FABCA3",
"cX c #F9BDAA",
"vX c #EBBCB8",
"bX c #F4BDB4",
"nX c #FBC09E",
"mX c #D9C5B8",
"MX c #FBC1A3",
"NX c #FBC3AC",
"BX c #FAC5AD",
"VX c #E8C5B9",
"CX c #F8C5B8",
"ZX c #CCC5C3",
"AX c #D6CBC8",
"SX c #DFD0C0",
"DX c #DDD8D7",
"FX c #F2C4C2",
"GX c #E8D3CA",
"HX c #EED3CD",
"JX c #E8DAD6",
"KX c #F0E2D3",
"LX c #F4E5DA",
"PX c #FCF7EE",
/* pixels */
"O O O O O O O O O O O O O O O O O O O O O O O O O O O O O O O O O O O O O O O O O O O O O O O O O O O O O O O O O O O O O O O O O O O O O O O O O O O O O O O O ",
"O O O O O O O O O O O O O O O O O O O O O O O O O O O O O O O O O O O O O O O O O O O O O O O O O O O O O O O O O O O O O O O O O O O O O O O O O O O O O O O O ",
"O O O O O O O O O O O O O O O O O O O O O O O O O O O O O O O O O O O O O O O O O O O O O O O O O O O O O O O O O O O O O O O O O O O O O O O O O O O O O O O O ",
"O O O O O O O O O O O O O O O O O O O O O O O O O O O O O O O O O O O O O O O O O O O O O O O O O O O O O O O O O O O O O O O O O O O O O O O O O O O O O O O O ",
"O O O O O O O O O O O O O O O O O O O O O O O O O O O O O O O O O O O O O O O O O O O O O O O O O O O O O O O O O O O O O O O O O O O O O O O O O O O O O O O O ",
"O O O O O O O O O O O O O O O O O O O O O O O O O O O O O O O O O O O O O O O e GXmXjXgXgXgXlXVXHXLXO O O O O O O O O O O O O O O O O O O O O O O O O O O O O O ",
"O O O O O O O O O O O O O O O O O O O O O O O O O O O O O O O O O O O O JXhX{.x.Y.XX+X;X:X9XqXkXlXvXFXFXJXO O O O O O O O O O O O O O O O O O O O O O O O O O O ",
"O O O O O O O O O O O O O O O O O O O O O O O O O O O O O O O O O O AX{.l.l.h.j.H.XX+X$X;X9XkXlXlXvXbXCXFXvXHXO O O O O O O O O O O O O O O O O O O O O O O O O ",
"O O O O O O O O O O O O O O O O O O O O O O O O O O O O O O O O mXk.d.h.z.j.j.z.H.L.+X$X:XqXqXkXlXlXbXbXbXCXvXvXO O O O O O O O O O O O O O O O O O O O O O O O ",
"O O O O O O O O O O O O O O O O O O O O O O O O O O O O O O AX[.k.d.h.9.z.j.j.z.K.L.$X$X8X8XqXqXtXzXzXzXzXbXFXFXvXO O O O O O O O O O O O O O O O O O O O O O O ",
"O O O O O O O O O O O O O O O O O O O O O O O O O O O O O |.k.d.7.5.5.9.j.z.G.G.L.+X#X#X8X8X0X0XwXiXiXiXzXzXbXCXFXVX}.O O O O O O O O O O O O O O O O O O O O O ",
"O O O O O O O O O O O O O O O O O O O O O O O O O O O .X[.s.d.4.4.=.=.8.q.G.K.L.XX+X+X#X%X%X1XwXwXeXiXpXpXzXzXbXCXCXvXJXO O O O O O O O O O O O O O O O O O O O ",
"O O O O O O O O O O O O O O O O O O O O O O O O O O e s.2.4.4.=.] ] #.-.G.K.K.XX+X+X#X#X%X1X1X1XwXeXyXyXpXpXzXcXbXCXCXlXO O O O O O O O O O O O O O O O O O O O ",
"O O O O O O O O O O O O O O O O O O O O O O O O O O [.2.2.=.=.#.] ) _ -.G.K.L.+X+X@X@X@X%X1X1XwXeXuXuXuXuXpXsXxXcXbXCXlXlXO O O O O O O O O O O O O O O O O O O ",
"O O O O O O O O O O O O O O O O O O O O O O O O O |.2.2.=.=.#..._ _  .-.G.L.XXW.@X@X@X@X%X<X1X6XyXuXpXpXpXpXpXpXxXcXNXcXtXVXO O O O O O O O O O O O O O O O O O ",
"O O O O O O O O O O O O O O O O O O O O O O O O AX2.{ { ] #..._ R _  .8.z.K.T.W.@X@X%X<X1X2X1X2X6X6XuXpXsXsXsXsXsXxXzXzXtX9X.XO O O O O O O O O O O O O O O O O ",
"O O O O O O O O O O O O O O O O O O O O O O O O 2.{ ] ] ] _  ._ R W ..8.z.K.T.W.W.W.W.@X<X2XwXuXuXuXuXuXuXuXuXsXsXsXsXiXtX9XlXO O O O O O O O O O O O O O O O O ",
"O O O O O O O O O O O O O O O O O O O O O O O  X{ [ ] ) _ _ / / / _ ..0.C.J.J.!.!.@X%X<X1X1X6XuXpXsXsXpXsXsXsXpXpXuXsXiXtX9X:X[.O O O O O O O O O O O O O O O O ",
"O O O O O O O O O O O O O O O O O O O O O O DX' ^ ] ) _ _ _ / / _  .$.V.C.J.J.W.!.%X<X1X6XeXyXuXsXsXsXuXsXsXsXsXxXsXiXpXtX0X9XVXO O O O O O O O O O O O O O O O ",
"O O O O O O O O O O O O O O O O O O O O O O }.^ ( _ _ _ _ / _ ../ #.8.C.U.Q.R.!.<X<X2X2X6XyXyXuXsXMXsXsXsXsXsXxXxXxXcXzXtX0X9X:XO O O O O O O O O O O O O O O O ",
"O O O O O O O O O O O O O O O O O O O O O DX' ^ ( _ _ _  .} /  ._ -.j.J.@X<X>X2X0XwX2XwXwXuXyX6XsXMXxXMXxXxXxXxXxXxXsXiXiXtX2X9X.XO O O O O O O O O O O O O O O ",
"O O O O O O O O O O O O O O O O O O O O O [.^ I / / / _ / / W / ] f.C.W.=X=X@X=X2X>X>X6XwXyXsXyXuXsXsXMXMXMXMXMXMXxXsXyX2X2X>X<XGXO O O O O O O O O O O O O O O ",
"O O O O O O O O O O O O O O O O O O O O DXw I R R W B B W / _ ( -.g.U.W.+Xj.*.] -.>.>.C.F./.,X6XuXuXsXMXMXMXnXnXsXsXsXsXyX>X).!.gXO O O O O O O O O O O O O O O ",
"O O O O O O O O O O O O O O O O O O O O }.U I R W W W W W _ ( ) >.g.j.( R _ #.R 4 1 1 * 7 ..!.6X7X4X6XsXsXuXuXuXsXsXsXsXsXyX).F.*XO O O O O O O O O O O O O O O ",
"O O O O O O O O O O O O O O O O O O O O ' I R R / / / _ _ _ ( *.,.#.n W } N 2 = = : : ; & ; H N.(.(.4XuX5X(.'.7XsXnXnXnXMXuX_.F.Z.O O O O O O O O O O O O O O O ",
"O O O O O O O O O O O O O O O O O O O DXU n R B N B _ _ / _ #.;.X.W V d k -.U.R.D.M.B s d d d @.A./.,X6X`.~.(._._._.4XsXsXxXyX).N.O O O O O O O O O O O O O O O ",
"O O O O O O O O O O O O O O O O O O O hXb n v N N /  ._ _ / X.+.+.S u B 0.T.=X>X2X,X/.:.H S S @.A.E./.'.~.n.n.,.| x _ g.!.yXiX2XZ.O O O O O O O O O O O O O O O ",
"O O O O O O O O O O O O O O O O O O O |.c n N N W /  ._ ..X.;.,.+.H m / ) ^ U #.Z.E.F.A.y.O.o.:.D.).4X3Xm.e.h d : & * 8 I >.J.6XW.O O O O O O O O O O O O O O O ",
"O O O O O O O O O O O O O O O O O O O [.I R N B / / / / B ,.M.:.>.>.s @ %   3 + + 0 +.e.y.:.O.:.D.,X6X3Xm.@.h f s s d 5 1 5 R W.!.O O O O O O O O O O O O O O O ",
"O O O O O O O O O O O O O O O O DX.XO 2.I N N B / / / / / } ;.;.$.W c c Q q X   ' T.j f @.,.,.y.N.6XsXuXm.L F S H ;.,.,.M M V >.!.O O O O O O O O O O O O O O O ",
"O O O O O O O O O O O O O O AXT %.6. XP v R / _ / / W _ ,.Z.J.Z.J.C.g.C.j.q.q.7.oXR.J. .;.B.y.N.A.wXxXsXm.J o.O.y.F.,X2X2X,.H V 0.O O O O O O O O O O O O O O O ",
"O O O O O O O O O O O O O O Q t u -.Q 4 j I R _  . ./ $.B.Z.P.E.F.Z.b.,.Z.D.P.R.R.R.!.>XR.B.R.B.A.0XzXxX~.r.o.M ! -.U.wX2X/.D H } O O O O O O O O O O O O O O O ",
"O O O O O O O O O O O O O DXl A D W 5.8 7 z R / } W / ;.J.Q./.E.D.E././.E.P.B.D.D.E./.).).%XW.B.A.1XzXNX'.n.& w o + o 4 g.!.@.D O.O O O O O O O O O O O O O O O ",
"O O O O O O O O O O O O O jXp A ;. .-.I 8 z N W / R  .,.Z.R.!.<X<X>X2X4X/.~.S.A.E.).,X,X1X%XA.i.A.1XzXNX(.~.F.*.9 X   < . W O.h e.e O O O O O O O O O O O O O O ",
"O O O O O O O O O O O O O fXp D M.Y.W ..5 z n W R / X.>.V.W.<X0X1X0XwX6X6X6X6XuX7X6X2X1X1XR.A.B.R.iXcXNX_.^.F.D.Z.H.5.$.j @ | H e.LXO O O O O O O O O O O O O O ",
"O O O O O O O O O O O O O fXA &.0.z.B / 7 P n N N _ } ;.B.R.@X<X0XiXeXyXeXuXuXuX7X6X2X%XF.A.A.D.%XzXcXCXuX(.`.n.e.D.E.N.N.,.X.A.n.JXO O O O O O O O O O O O O O ",
"O O O O O O O O O O O O O $X~ i.:.,.m / z P c n n } X.;.y.B.!.8XiXzXeXpXyXpXuX7X6X3X,XE.N.y.y.Z.1XzXcXCXxX'.`.5XS.J e.~._._.,XA.t.HXO O O O O O O O O O O O O O ",
"O O O O O O O O O O O O O $X&.P.@.y x %.n P P c v V } H o.M.W.<X0XiXeXeXpXpXuX6X3X(./.D.).E.y.P.qXcXBXCXxX3X`.7XuX6XS.e.e.~./.F.E.VXO O O O O O O O O O O O O O ",
"O O O O O O O O O O O O O -Xi.P.O.u q.-.R P P c k M S S | ,.P.@X1X0X6X6XwX6X(.~.n.y.B.I.0X0X@X@XzXcXBXCXxX4X`.7XsXMXsXsXyX).n._._.lXO O O O O O O O O O O O O O ",
"O O O O O O O O O O O O O fXI.&.D &.oX-.R U P 8 s f h M | :.y.Z.!.)./././.~.n.n.N.>.i.I.%X%XW.W.<XwXxXBXsXuXxXpXsXsXxXNXNXNXxX4X3X0XO O O O O O O O O O O O O O ",
"O O O O O O O O O O O O O fXi.! 0.8.z.#.R U U 8 d f f V o.o.@.b.P.S.S.t.e.@.t.A.i.! ! &.&.! ! o.@.e.r.m.^.7XBXcX7XsXMXNXBXBXNXxXwX).O O O O O O O O O O O O O O ",
"O O O O O O O O O O O O O fXG.q.z.! 0.#.( I U 7 x f f S S h J e.e.J f f | e.A.P.G.E : = . . . 2 M C C Z L n.~.(.(.3XsXMXBXBXNXsXuX,XLXO O O O O O O O O O O O O ",
"O O O O O O O O O O O O O AX$.x.XX9.;. .R 0 U 7 d g m D s h o.H s x ,.N.b.y.M.G.i.q.T 2 = u u 2 : u s y : ; f e.n.S.'.sXxXNXMXuX7X3XLXO O O O O O O O O O O O O ",
"O O O O O O O O O O O O O }.%.x.C.,.$./ I ` P k x N B D y S C y / y.+.V M $.$.-.-.3.%.] E k k k = $ : 2 # . @ M n.r.A.'.uXsXsXuX_./.LXO O O O O O O O O O O O O ",
"O O O O O O O O O O O O O O OXG.L.H.V.W [ U 0 k N N V H s H f N ,.} d B /  .-.5.[ [ 3.[ [ P c k 5 5 B V x s | S.r.F t.~.3X4X7X3X(.S.O O O O O O O O O O O O O O ",
"O O O O O O O O O O O O O O SXq.L.+X0./ ^ Y z k m N } S d o.s ;.| V / ) ] #.[ { [ 4.3.[ [ Q U 5 v N n +.;.y.t.n.n.O.h e.S.^.^.^.S.A.O O O O O O O O O O O O O O ",
"O O O O O O O O O O O O O O O jXG.oX7.R U U I j x N X.m m ;.g +.H W R c z I #.%.6.6.z.w.q.9.%.E j 1 v $.;.J.B.n.n.n.D y K v.v.v.n.gXO O O O O O O O O O O O O O ",
"O O O O O O O O O O O O O O O O O O fXR U U k k x N ;.V d :.B :.+./ ; % 1 1 = # = 2 i k T ~ &.i.I.P.P.V.,.0.J.N.t.n.n.f a K r.r.r.JXO O O O O O O O O O O O O O ",
"O O O O O O O O O O O O O O O O O O fXR ^ U z x x B :. .: | V :.;._ R *   X @ # i 4.^ i k - t i p A ~ &.i.J.V.V.M.@.@.t.= Z K K e.O O O O O O O O O O O O O O O ",
"O O O O O O O O O O O O O O O O O O |.R U P k j x R :.X.: V / >.g.#.....8 & ' 2.4.mXSXjXVXq.-XE - 2 - - u A :.+.>.;.:.e.V C L G oXO O O O O O O O O O O O O O O ",
"O O O O O O O O O O O O O O O O O O {.I U U j k R N ;.,.x s / *.>.*.8.0.-.Q Q 3.6.OXgXSXPXJXPXSXVXKXH.c.5 @ - M B X.X.D :.f K Z SXO O O O O O O O O O O O O O O ",
"O O O O O O O O O O O O O O O O O O |.I P w j x j x | i...5 N / -.=.5.j.q.8.%.<.Q <.].].dXFXLXLXPXPXKXLXmXX   # 5 5 X.M @.C K Z O O O O O O O O O O O O O O O O ",
"O O O O O O O O O O O O O O O O O O hXU P 8 c n I x D B.*.j j R ] =.=.-.H.q.9.8.w.w.6.u.u.].&XkXFXHXHXHXVXq   . 4 5 } ,.@.J G C.O O O O O O O O O O O O O O O O ",
"O O O O O O O O O O O O O O O O O O .Xc U q 8 c I v B } X./ j I ] 5.=.=.q.z.8.%.4.q.i.p.p.u.p.&X&X&X&X&Xu.~ T >.;.X.;.N.O.L Z jXO O O O O O O O O O O O O O O O ",
"O O O O O O O O O O O O O O O O O O O {.w 9 9 5 z z x H .._ z z =.5.d.5.z.q.9.q.9.-.#._ %.&.i.p.I.p.p.p.&.p.i.D.F.a.B.b.e.Z G LXO O O O O O O O O O O O O O O O ",
"O O O O O O O O O O O O O O O O O O O AXP 9 4 8 v j j B / ) I 0 { d.h.5.8.4.z.G.K.V.>.$.R v k s l &.i.p.p.i.N.!.R.g.M.t.@.F M.O O O O O O O O O O O O O O O O O ",
"O O O O O O O O O O O O O O O O O O O O  X9 1 5 j z z x B _ 8 0 ^ { l.x.5.5.z.j.T.W.J.U.0.#.W R j N W X.>.0.R.).Z.;.} H C J gXO O O O O O O O O O O O O O O O O ",
"O O O O O O O O O O O O O O O O O O O O O ' 6 4 7 5 j z n n U w w ' 7.h.7.5.h.z.j.T.T.W.V.V.g.;.$.;.;.:.y.Z.!.U.C.g./ h J O.JXO O O O O O O O O O O O O O O O O ",
"O O O O O O O O O O O O O O O O O O O O O JX9 1 5 7 7 j 5 0 0 w w ' 2.7.l.7.7.Y.+X*X#X=X8X1X=XQ.W.J.J.P.P.Q.Z.U.C.f.g o.J 8.O O O O O O O O O O O O O O O O O O ",
"O O O O O O O O O O O O O O O O O O O O O O hX, 1 1 1 5 z c w w w ' ' 7.l.d.x.c.XX$X=X9X8X8X9XtX8X=XU.J.@X@XK.*X*X) H J o.mXO O O O O O O O O O O O O O O O O O ",
"O O O O O O O O O O O O O O O O O O O O O O O .X, 1 1 1 1 z w ` ` w ` 2.l.x.l.l.Y.oXqX9XqXlXtXrX;X;X$X#XT.x.*XoXx.n O.H *.O O O O O O O O O O O O O O O O O O O ",
"O O O O O O O O O O O O O O O O O O O O O O O O mX1 * , 1 4 8 w ` ` w ` 7.l.7.l.l.;X#XoX=X:XtX:XqXzXzX;X;XoXoXoX{ ) | V JXO O O O O O O O O O O O O O O O O O O ",
"O O O O O O O O O O O O O O O O O O O O O O O O O JXe & % 1 1 9 6 w w ' 2.k.7.l.4.XXXXoX;XqXtX*X9XlX;XkX:XoXoXx.{ B B fXO O O O O O O O O O O O O O O O O O O O ",
"O O O O O O O O O O O O O O O O O O O O O O O O O O O .X> % , , * 9 q 9 w { h.h.{ 7.7.z.XX;X:X:X;X#X$X=XoXoXc.k.2.( 2.O O O O O O O O O O O O O O O O O O O O O ",
"O O O O O O O O O O O O O O O O O O O O O O O O O O O O O }.> % * 6 1 9 w P { 5.{ 7.4.8.8.j.Y.oXoXoXXXH.Y.h.l.2.1.{ JXO O O O O O O O O O O O O O O O O O O O O ",
"O O O O O O O O O O O O O O O O O O O O O O O O O O O O O O e |.3 , , , , 9 w U { 4.[ R ( *.$.8.-...#.5.x.5.d.s.` ZXO O O O O O O O O O O O O O O O O O O O O O ",
"O O O O O O O O O O O O O O O O O O O O O O O O O O O O O O O O O AX}.3 % > 6 q 9 w 9 0 8 0 I R I ] ( d.4.1.1.2.DXO O O O O O O O O O O O O O O O O O O O O O O ",
"O O O O O O O O O O O O O O O O O O O O O O O O O O O O O O O O O O O O AX[.3 % < < 3 6 1 1 6 9 9 w ^ 2.` s.hXO O O O O O O O O O O O O O O O O O O O O O O O O ",
"O O O O O O O O O O O O O O O O O O O O O O O O O O O O O O O O O O O O O O O DXZX}.r > > > < < < q [..X.XO O O O O O O O O O O O O O O O O O O O O O O O O O O ",
"O O O O O O O O O O O O O O O O O O O O O O O O O O O O O O O O O O O O O O O O O O O O O O [.e O O O O O O O O O O O O O O O O O O O O O O O O O O O O O O O O ",
"O O O O O O O O O O O O O O O O O O O O O O O O O O O O O O O O O O O O O O O O O O O O O O O O O O O O O O O O O O O O O O O O O O O O O O O O O O O O O O O O ",
"O O O O O O O O O O O O O O O O O O O O O O O O O O O O O O O O O O O O O O O O O O O O O O O O O O O O O O O O O O O O O O O O O O O O O O O O O O O O O O O O ",
"O O O O O O O O O O O O O O O O O O O O O O O O O O O O O O O O O O O O O O O O O O O O O O O O O O O O O O O O O O O O O O O O O O O O O O O O O O O O O O O O ",
"O O O O O O O O O O O O O O O O O O O O O O O O O O O O O O O O O O O O O O O O O O O O O O O O O O O O O O O O O O O O O O O O O O O O O O O O O O O O O O O O ",
"O O O O O O O O O O O O O O O O O O O O O O O O O O O O O O O O O O O O O O O O O O O O O O O O O O O O O O O O O O O O O O O O O O O O O O O O O O O O O O O O ",
"O O O O O O O O O O O O O O O O O O O O O O O O O O O O O O O O O O O O O O O O O O O O O O O O O O O O O O O O O O O O O O O O O O O O O O O O O O O O O O O O ",
"O O O O O O O O O O O O O O O O O O O O O O O O O O O O O O O O O O O O O O O O O O O O O O O O O O O O O O O O O O O O O O O O O O O O O O O O O O O O O O O O ",
"O O O O O O O O O O O O O O O O O O O O O O O O O O O O O O O O O O O O O O O O O O O O O O O O O O O O O O O O O O O O O O O O O O O O O O O O O O O O O O O O ",
"O O O O O O O O O O O O O O O O O O O O O O O O O O O O O O O O O O O O O O O O O O O O O O O O O O O O O O O O O O O O O O O O O O O O O O O O O O O O O O O O ",
"O O O O O O O O O O O O O O O O O O O O O O O O O O O O O O O O O O O O O O O O O O O O O O O O O O O O O O O O O O O O O O O O O O O O O O O O O O O O O O O O "
};
