/* XPM */
static char *result[] = {
/* columns rows colors chars-per-pixel */
"64 64 139 2 ",
"   c #000000",
".  c #0F0406",
"X  c #130703",
"o  c #170A05",
"O  c #1B1005",
"+  c #270C07",
"@  c #2A0E07",
"#  c #251406",
"$  c #2A1404",
"%  c #2F1906",
"&  c #29130A",
"*  c #26190C",
"=  c #2E1E0C",
"-  c #351E05",
";  c #381F04",
":  c #361509",
">  c #341B0C",
",  c #3B2205",
"<  c #34220B",
"1  c #3E260A",
"2  c #3D280E",
"3  c #332411",
"4  c #4B1B0D",
"5  c #412607",
"6  c #422708",
"7  c #43290B",
"8  c #492F0D",
"9  c #54210C",
"0  c #4E320D",
"q  c #51350D",
"w  c #442E12",
"e  c #482F12",
"r  c #4A3214",
"t  c #4B3318",
"y  c #513312",
"u  c #5B3010",
"i  c #563A15",
"p  c #5A3D16",
"a  c #573C1A",
"s  c #70300E",
"d  c #762F14",
"f  c #673312",
"g  c #743011",
"h  c #7B3E13",
"j  c #5B4714",
"k  c #514119",
"l  c #5D4219",
"z  c #5C4919",
"x  c #654418",
"c  c #62481C",
"v  c #6F4B19",
"b  c #7B4118",
"n  c #655119",
"m  c #70551D",
"M  c #735A1F",
"N  c #7C5B1B",
"B  c #6E5020",
"V  c #7A7025",
"C  c #823513",
"Z  c #8B3611",
"A  c #8B3B14",
"S  c #913813",
"D  c #9F3C16",
"F  c #834816",
"G  c #9F541F",
"H  c #B54C1B",
"J  c #B45F1E",
"K  c #885C20",
"L  c #836B21",
"P  c #8C6C24",
"I  c #976722",
"U  c #9F6920",
"Y  c #937427",
"T  c #95752B",
"R  c #937E2A",
"E  c #98792A",
"W  c #AE6D23",
"Q  c #B46322",
"!  c #A57127",
"~  c #B27C2C",
"^  c #BE7C2A",
"/  c #C7531D",
"(  c #C8531E",
")  c #CE581E",
"_  c #D5581C",
"`  c #E55F1E",
"'  c #E25F22",
"]  c #C66F24",
"[  c #D47427",
"{  c #E26522",
"}  c #EB6220",
"|  c #F66622",
" . c #FC6A22",
".. c #ED7126",
"X. c #EA7528",
"o. c #EA7D29",
"O. c #FB7525",
"+. c #FC7B28",
"@. c #928029",
"#. c #908631",
"$. c #B68F2E",
"%. c #B38D33",
"&. c #BA9133",
"*. c #BF9833",
"=. c #D4872C",
"-. c #CF9432",
";. c #C49B36",
":. c #D99031",
">. c #EB812A",
",. c #E68B2C",
"<. c #F6852E",
"1. c #FA832B",
"2. c #FB8A2D",
"3. c #EA9033",
"4. c #EB9E33",
"5. c #F49232",
"6. c #FD9131",
"7. c #F29A35",
"8. c #F99F35",
"9. c #CEA73C",
"0. c #D4A93B",
"q. c #DCB13C",
"w. c #FCA235",
"e. c #F7A937",
"r. c #FCAC3A",
"t. c #E2B33D",
"y. c #E8B73E",
"u. c #FBB33C",
"i. c #FCBC3E",
"p. c #E6B941",
"a. c #ECBA41",
"s. c #F6C443",
"d. c #FDC643",
"f. c #FDCC45",
"g. c #FDD647",
"h. c #FED549",
"j. c #FDDC4C",
"k. c #FDE44E",
"l. c #FCE84C",
/* pixels */
"                                                                          *.a.o                                                 ",
"                                                                                                                                ",
"                                                                      9 D U E                                                   ",
"                                                                      S  .r.s.O                                                 ",
"                                                                      4 Z K P                                                   ",
"                                                          3 <                                                                   ",
"                                                          q.9.                                                                  ",
"                                                      x I ;.%.      C g                                                         ",
"                                                      ^ e.y       @ } _                                                         ",
"                                                      v I >       & X.../ s                                                     ",
"                                                                  > >.+.| A                                                     ",
"                                                                ~ 4.w.:.4 @                                                     ",
"                                                                ! :.8.=.X f h                                                   ",
"                                                                  & >.[ . ] <.X                                                 ",
"                                                                    G W *.o.O.X                                                 ",
"                                                                      P d.6.| +                                                 ",
"                                                            M p.,.' : P d.6. .` H                                               ",
"                                                          z T d.w.<.m Y q.5.+. .) f >                                           ",
"                                                          p.d.d.j.l.f.0.. ;.d. .O.2.F                                           ",
"                                                      L $.7.r.d.f.g.d.y.%.t.d. .{ J u                                           ",
"                                                      &.d.+.1.d.d.d.d.d.d.d.d.| (                                               ",
"                                                      k m >.6.d.g.j.d.f.k.u.6.d 9                                               ",
"                                                          [ 3.a.g.j.f.h.k.r.1.X                                                 ",
"                                                            b 2.r.d.k.j.d.w.1.o                                                 ",
"                                                            N i.d.g.k.k.h.-.Q                                                   ",
"                                                            V k.k.l.k.k.k.#.                                                    ",
"                                                      < 8 8 j @.@.@.R R R n 8 8 <                                               ",
"                                                      < q q q 0 q q q q 0 q 0 0 2                                               ",
"                                                          a i 1 5 5 - - - ; ,                                                   ",
"                                                          w t a 8 5 ; ; - - -                                                   ",
"                                                            3 B i 5 5 , -                                                       ",
"                                                            3 c i 8 , ; , #                                                     ",
"                                                            < l i q ; ; 5 #                                                     ",
"                                                            = l i q 5 5 5 $                                                     ",
"                                                            * t 8 8 5 , ; X                                                     ",
"                                                                $ - % $                                                         ",
"                                                                : , ; -                                                         ",
"                                                                - 6 6 <                                                         ",
"                                                                2 0 6 -                                                         ",
"                                                                7 y 6 ;                                                         ",
"                                                                r l 7 <                                                         ",
"                                                                8 i 5 <                                                         ",
"                                                                6 q 5 <                                                         ",
"                                                                1 q 5 ;                                                         ",
"                                                                7 y 6 <                                                         ",
"                                                                r l 6 ;                                                         ",
"                                                                w p 6 <                                                         ",
"                                                                6 q 6 <                                                         ",
"                                                                r p 7 -                                                         ",
"                                                                r p 7 <                                                         ",
"                                                                6 q 6 -                                                         ",
"                                                                7 q 6 ;                                                         ",
"                                                                2 q 6 <                                                         ",
"                                                                e p 6 ;                                                         ",
"                                                                r l 6 <                                                         ",
"                                                                r l 6 ;                                                         ",
"                                                                r l 6 <                                                         ",
"                                                                r l 6 ,                                                         ",
"                                                                < 6 ; %                                                         ",
"                                                                # - % $                                                         ",
"                                                                                                                                ",
"                                                                                                                                ",
"                                                                                                                                ",
"                                                                                                                                "
};
