/* XPM */
static char * torch8_xpm[] = {
"64 64 117 2",
"  	c #000000",
". 	c #A52F10",
"+ 	c #992B0D",
"@ 	c #B03210",
"# 	c #A42E10",
"$ 	c #975019",
"% 	c #8C4C1A",
"& 	c #C36A22",
"* 	c #B66420",
"= 	c #7B571C",
"- 	c #C8872C",
"; 	c #78521B",
"> 	c #C7842C",
", 	c #92290C",
"' 	c #4E1406",
") 	c #491E0E",
"! 	c #F44715",
"~ 	c #85230F",
"{ 	c #938A2F",
"] 	c #EDD948",
"^ 	c #320E09",
"/ 	c #A2822C",
"( 	c #A17F2B",
"_ 	c #A84415",
": 	c #DA9A33",
"< 	c #F8DE4C",
"[ 	c #C6541C",
"} 	c #69290F",
"| 	c #AC8B2F",
"1 	c #AA882F",
"2 	c #D57D29",
"3 	c #FBB53F",
"4 	c #FCE04C",
"5 	c #FB7D29",
"6 	c #AA4F1A",
"7 	c #62280B",
"8 	c #D6C143",
"9 	c #FDE64E",
"0 	c #FBE24F",
"a 	c #FCA936",
"b 	c #FD7D27",
"c 	c #C3511A",
"d 	c #39280F",
"e 	c #E6B83E",
"f 	c #F8C443",
"g 	c #FCD447",
"h 	c #FDE54C",
"i 	c #FDE14C",
"j 	c #FDC945",
"k 	c #F7A136",
"l 	c #E25F20",
"m 	c #3D2A0E",
"n 	c #F5C242",
"o 	c #FDD248",
"p 	c #FDD748",
"q 	c #FDD648",
"r 	c #FEE54D",
"s 	c #FDBB40",
"t 	c #DD8C2D",
"u 	c #A54315",
"v 	c #332710",
"w 	c #D8AE3B",
"x 	c #F4D348",
"y 	c #FDD949",
"z 	c #FCCC45",
"A 	c #FDE04C",
"B 	c #FDA638",
"C 	c #C56A24",
"D 	c #D3A639",
"E 	c #FCD247",
"F 	c #FDE34D",
"G 	c #FCC843",
"H 	c #FD9D35",
"I 	c #C56A22",
"J 	c #372F10",
"K 	c #DCCD47",
"L 	c #F6DC4C",
"M 	c #FCE24D",
"N 	c #FBE04D",
"O 	c #FB6720",
"P 	c #994316",
"Q 	c #47240E",
"R 	c #BCAB39",
"S 	c #C4AE38",
"T 	c #C2AE3A",
"U 	c #C3A739",
"V 	c #C24112",
"W 	c #6F2D0E",
"X 	c #442A0B",
"Y 	c #4E330D",
"Z 	c #5D4E18",
"` 	c #614715",
" .	c #5D4214",
"..	c #3A260B",
"+.	c #35220C",
"@.	c #422E12",
"#.	c #563A14",
"$.	c #4A2E0B",
"%.	c #412608",
"&.	c #3A250A",
"*.	c #362613",
"=.	c #5B3F18",
"-.	c #3C2305",
";.	c #341C02",
">.	c #684C20",
",.	c #2C1703",
"'.	c #593D16",
").	c #412607",
"!.	c #3D2307",
"~.	c #2D1A07",
"{.	c #261505",
"].	c #3D290E",
"^.	c #533711",
"/.	c #51340E",
"(.	c #3D2B10",
"_.	c #443610",
":.	c #1C0D05",
"                                                                                                                                ",
"                                                                                                                                ",
"                                                                                                                                ",
"                                                                                                                                ",
"                                                                                                                                ",
"                                                                                                                                ",
"                                                                                                                                ",
"                                                                      . +                                                       ",
"                                                                      @ #                                                       ",
"                                                                                                                                ",
"                                                                                                                                ",
"                                                                                                                                ",
"                                                                                                                                ",
"                                                                                                                                ",
"                                                                                                                                ",
"                                                              $ %                                                               ",
"                                                              & *                                                               ",
"                                                                                                                                ",
"                                                                                                                                ",
"                                                                                                                                ",
"                                                                                                                                ",
"                                                                                                                                ",
"                                                                = -                                                             ",
"                                                                ; > , '                                                         ",
"                                                                  ) ! ~                                                         ",
"                                                                { ] ^                                                           ",
"                                                      / (     _ : < [ }                                                         ",
"                                                      | 1     2 3 4 5 6 7                                                       ",
"                                                              8 9 0 a b c                                                       ",
"                                                          d e f g h i j k l                                                     ",
"                                                          m n o p q r s t u                                                     ",
"                                                          v w x y z A B C                                                       ",
"                                                              D E F G H I                                                       ",
"                                                          J K L M N O P Q                                                       ",
"                                                            R S T U V W                                                         ",
"                                                      X Y Y Z ` ` ` `  .Y Y ..                                                  ",
"                                                      +.@.#.$.Y $.%.%.$.Y &.&.                                                  ",
"                                                        *.=.X %.-.;.;.;.-.                                                      ",
"                                                            >. .%.%.;.,.                                                        ",
"                                                            >.'.X -.-.+.                                                        ",
"                                                            =.#.Y ;.-.-.                                                        ",
"                                                             .'.Y ).%.+.                                                        ",
"                                                            +.&.-.-.,.                                                          ",
"                                                              ,.;.;.!.                                                          ",
"                                                              ~.).%.,.                                                          ",
"                                                              +.$.%.{.                                                          ",
"                                                              ].^.%.{.                                                          ",
"                                                              @.=.%.{.                                                          ",
"                                                              &./.%.{.                                                          ",
"                                                              +./.%.{.                                                          ",
"                                                              &.Y %.{.                                                          ",
"                                                              @.'.%.{.                                                          ",
"                                                              ].#.%.{.                                                          ",
"                                                              ]./.%.{.                                                          ",
"                                                              @.'.%.{.                                                          ",
"                                                              ].^.%.{.                                                          ",
"                                                              ].Y ).{.                                                          ",
"                                                              +.Y ).{.                                                          ",
"                                                              (.#.).{.                                                          ",
"                                                              @. .%.{.                                                          ",
"                                                              _.=.%.{.                                                          ",
"                                                              @.=.%.,.                                                          ",
"                                                              (.#.).:.                                                          ",
"                                                                ;.;.                                                            "};
