/* XPM */
static char * torch7_xpm[] = {
"64 64 122 2",
"  	c #000000",
". 	c #43120B",
"+ 	c #360D0A",
"@ 	c #0B0403",
"# 	c #E74315",
"$ 	c #BD3611",
"% 	c #7E200C",
"& 	c #C43810",
"* 	c #F24515",
"= 	c #982B0E",
"- 	c #B43211",
"; 	c #B66623",
"> 	c #8D4C19",
", 	c #DA792A",
"' 	c #38280B",
") 	c #AB882D",
"! 	c #EDC042",
"~ 	c #37250B",
"{ 	c #AF7127",
"] 	c #FAA539",
"^ 	c #C2541A",
"/ 	c #843613",
"( 	c #191306",
"_ 	c #33280C",
": 	c #AE5C1D",
"< 	c #FB8329",
"[ 	c #F16622",
"} 	c #A74517",
"| 	c #9F9435",
"1 	c #F9E550",
"2 	c #392F0E",
"3 	c #F0852C",
"4 	c #3B1B0B",
"5 	c #6B6723",
"6 	c #A8A035",
"7 	c #2B2310",
"8 	c #753F15",
"9 	c #A55A1E",
"0 	c #B17A27",
"a 	c #B55D1E",
"b 	c #2C130A",
"c 	c #F4A436",
"d 	c #FC8127",
"e 	c #291B0A",
"f 	c #AF471A",
"g 	c #8A3811",
"h 	c #F4C343",
"i 	c #D69230",
"j 	c #A92F0E",
"k 	c #1E1609",
"l 	c #ED6521",
"m 	c #BD501B",
"n 	c #372311",
"o 	c #EAD84A",
"p 	c #B2A137",
"q 	c #210D04",
"r 	c #E4B73D",
"s 	c #C09A37",
"t 	c #170C04",
"u 	c #EBB841",
"v 	c #FBA534",
"w 	c #F76C25",
"x 	c #FDE34D",
"y 	c #FBB43C",
"z 	c #E69330",
"A 	c #B3A73A",
"B 	c #FDC442",
"C 	c #FBBD3F",
"D 	c #F6892E",
"E 	c #B14C19",
"F 	c #732F11",
"G 	c #FCAA39",
"H 	c #FDDF4B",
"I 	c #D3A837",
"J 	c #FDD549",
"K 	c #FBA935",
"L 	c #FC6C24",
"M 	c #A64918",
"N 	c #E8B53C",
"O 	c #FDBE40",
"P 	c #F89632",
"Q 	c #E76321",
"R 	c #A9852C",
"S 	c #D4862E",
"T 	c #FD7929",
"U 	c #A4561B",
"V 	c #FC8A2C",
"W 	c #A36922",
"X 	c #724C19",
"Y 	c #F4B53F",
"Z 	c #F59631",
"` 	c #B2611F",
" .	c #20100B",
"..	c #442A0B",
"+.	c #4E330D",
"@.	c #5D4E18",
"#.	c #614715",
"$.	c #5D4214",
"%.	c #3A260B",
"&.	c #35220C",
"*.	c #422E12",
"=.	c #563A14",
"-.	c #4A2E0B",
";.	c #412608",
">.	c #3A250A",
",.	c #362613",
"'.	c #5B3F18",
").	c #3C2305",
"!.	c #341C02",
"~.	c #684C20",
"{.	c #2C1703",
"].	c #593D16",
"^.	c #412607",
"/.	c #3D2307",
"(.	c #2D1A07",
"_.	c #261505",
":.	c #3D290E",
"<.	c #533711",
"[.	c #51340E",
"}.	c #3D2B10",
"|.	c #443610",
"1.	c #1C0D05",
"                                                                                                                                ",
"                                                                                                                                ",
"                                                                                                                                ",
"                                                                                                                                ",
"                                                                                                                                ",
"                                                                                                                                ",
"                                                                                                                                ",
"                                                                                                                                ",
"                                                                                                                                ",
"                                                                                                                                ",
"                                                            . +                                                                 ",
"                                                          @ # $                                                                 ",
"                                                        % & * $                                                                 ",
"                                                        = * * -                                                                 ",
"                                                                                                                                ",
"                                                            ; >                                                                 ",
"                                                            , ; '                                                               ",
"                                                              ) ! ~                                                             ",
"                                                              { ] ^ /                                                           ",
"                                                        ( _   : < [ }                                                           ",
"                                                        | 1 2 : 3 4                                                             ",
"                                                        5 6 7 8 9 0 a -                                                         ",
"                                                                b c d *                                                         ",
"                                                                e c < *                                                         ",
"                                                            f g e h i j                                                         ",
"                                                      k   @ l m n o p q                                                         ",
"                                                      r s t u v w x y l @                                                       ",
"                                                      z i A h B y x C D E F                                                     ",
"                                                      l G H I J x x I K L M b                                                   ",
"                                                      N G L O B I x x x B P Q                                                   ",
"                                                      R S T B I J J H x G , f                                                   ",
"                                                        U V B J x I J x V 9                                                     ",
"                                                        W K V G I x J B V 9                                                     ",
"                                                        X 0 Y I J x B Z ` 8                                                     ",
"                                                           .o x x x K * @                                                       ",
"                                                      ..+.+.@.#.#.#.#.$.+.+.%.                                                  ",
"                                                      &.*.=.-.+.-.;.;.-.+.>.>.                                                  ",
"                                                        ,.'...;.).!.!.!.).                                                      ",
"                                                            ~.$.;.;.!.{.                                                        ",
"                                                            ~.]...).).&.                                                        ",
"                                                            '.=.+.!.).).                                                        ",
"                                                            $.].+.^.;.&.                                                        ",
"                                                            &.>.).).{.                                                          ",
"                                                              {.!.!./.                                                          ",
"                                                              (.^.;.{.                                                          ",
"                                                              &.-.;._.                                                          ",
"                                                              :.<.;._.                                                          ",
"                                                              *.'.;._.                                                          ",
"                                                              >.[.;._.                                                          ",
"                                                              &.[.;._.                                                          ",
"                                                              >.+.;._.                                                          ",
"                                                              *.].;._.                                                          ",
"                                                              :.=.;._.                                                          ",
"                                                              :.[.;._.                                                          ",
"                                                              *.].;._.                                                          ",
"                                                              :.<.;._.                                                          ",
"                                                              :.+.^._.                                                          ",
"                                                              &.+.^._.                                                          ",
"                                                              }.=.^._.                                                          ",
"                                                              *.$.;._.                                                          ",
"                                                              |.'.;._.                                                          ",
"                                                              *.'.;.{.                                                          ",
"                                                              }.=.^.1.                                                          ",
"                                                                !.!.                                                            "};
