/* XPM */
static char *result[] = {
/* columns rows colors chars-per-pixel */
"64 64 126 2 ",
"   c black",
".  c #0C0703",
"X  c #170B05",
"o  c #1D0906",
"O  c #230B07",
"+  c #260709",
"@  c #250C09",
"#  c #3A0D07",
"$  c #271404",
"%  c #2D1703",
"&  c #241807",
"*  c #2D1904",
"=  c #261509",
"-  c #261D0A",
";  c #2B1C0A",
":  c #331B02",
">  c #391F04",
",  c #301E0D",
"<  c #2C1D10",
"1  c #3D2306",
"2  c #32210C",
"3  c #3D240A",
"4  c #3F290C",
"5  c #362914",
"6  c #42170B",
"7  c #481308",
"8  c #44190D",
"9  c #4E1E0B",
"0  c #5C1709",
"q  c #561F0B",
"w  c #651B0B",
"e  c #402607",
"r  c #422807",
"t  c #402608",
"y  c #442B0B",
"u  c #482E0C",
"i  c #4D310D",
"p  c #51350F",
"a  c #442F16",
"s  c #4D3411",
"d  c #523711",
"f  c #543A15",
"g  c #553C18",
"h  c #74300D",
"j  c #7A330E",
"k  c #662A13",
"l  c #783212",
"z  c #574419",
"x  c #5E431B",
"c  c #5E4A19",
"v  c #754A17",
"b  c #6B551F",
"n  c #74571C",
"m  c #6B5021",
"M  c #6E5B20",
"N  c #7B6021",
"B  c #84220C",
"V  c #962B11",
"C  c #833611",
"Z  c #923D13",
"A  c #B2330E",
"S  c #B33112",
"D  c #B93511",
"F  c #CE3B11",
"G  c #D33B12",
"H  c #954617",
"J  c #845419",
"K  c #9A551C",
"L  c #A34516",
"P  c #AC4917",
"I  c #AE4718",
"U  c #92621F",
"Y  c #896E24",
"T  c #956622",
"R  c #857328",
"E  c #85792D",
"W  c #907329",
"Q  c #A16F24",
"!  c #C04F18",
"~  c #C2541D",
"^  c #D85A1E",
"/  c #E14215",
"(  c #F24714",
")  c #FD571A",
"_  c #C96522",
"`  c #D37526",
"'  c #ED6322",
"]  c #F56522",
"[  c #FB6621",
"{  c #FC6A22",
"}  c #E67D29",
"|  c #FC7426",
" . c #FA7A2A",
".. c #95892F",
"X. c #988E2F",
"o. c #A6852E",
"O. c #AE9733",
"+. c #AE9935",
"@. c #BE9733",
"#. c #B7AD39",
"$. c #BBAF3C",
"%. c #C4862C",
"&. c #D5852A",
"*. c #DF802B",
"=. c #D39733",
"-. c #DC9631",
";. c #FA862B",
":. c #FB892C",
">. c #ED9930",
",. c #FD9431",
"<. c #FC9C35",
"1. c #FCA637",
"2. c #FDAD37",
"3. c #F3A238",
"4. c #FCA639",
"5. c #F3AC3A",
"6. c #FBB43D",
"7. c #FDB93B",
"8. c #EFBD42",
"9. c #FCC443",
"0. c #FDCB45",
"q. c #ECD149",
"w. c #FDD146",
"e. c #FDD548",
"r. c #FCDB4B",
"t. c #FDE44D",
/* pixels */
"                                                                #                                                               ",
"                                                              B ( w                                                             ",
"                                                              0 A 7                                                             ",
"                                                                                                                                ",
"                                                                                                                                ",
"                                                            V V                                                                 ",
"                                                            F G           = 3                                                   ",
"                                                                          Q 3.=                                                 ",
"                                                                        S &.6.&                                                 ",
"                                                                        / ,.9.&                                                 ",
"                                                                        + o.9.&                                                 ",
"                                                                          b o.                                                  ",
"                                                                    @ 6   $ 6                                                   ",
"                                                                    Z ] q L ] @                                                 ",
"                                                        z @.c       H  .~ ^ [ @                                                 ",
"                                                        n 9.N     , K :.{ ] ' O                                                 ",
"                                                        h { j     -.4.1.) D O                                                   ",
"                                                        9 L 9     U %.4.) *.$..                                                 ",
"                                                              O 8 o T 2.[ 4.r.-                                                 ",
"                                                              C [ k ..t.t.7.[ @                                                 ",
"                                                      X.$.@.c J 1._ =.t.e.2.{ ! C                                               ",
"                                                      $.q.9.Y W 0.:.1.t.0.1.| [ I                                               ",
"                                                        l [ 0.r.9.t.t.t.0.9.0.{ P                                               ",
"                                                        v 4.4.6.0.w.r.t.r.w.9.{ P                                               ",
"                                                        M 8.;.;.9.0.w.t.t.w.9.] L                                               ",
"                                                            ` <.9.r.r.9.t.9.;.X                                                 ",
"                                                            &.<.1.0.w.r.w.6.;.=                                                 ",
"                                                            %.>.,.9.w.t.0.5.} o                                                 ",
"                                                              E t.t.t.t.t.#.                                                    ",
"                                                          y 4 b +.O.O.O.+.R 4 y ;                                               ",
"                                                        X i d d i p p i i i i i 2                                               ",
"                                                            s g e r 1 : : > 4                                                   ",
"                                                            2 a x u 1 1 : : =                                                   ",
"                                                              5 m i r 1 : $                                                     ",
"                                                              2 x p u : r ;                                                     ",
"                                                              , x p u 1 t :                                                     ",
"                                                              < g p u 1 3 *                                                     ",
"                                                                  % : :                                                         ",
"                                                                  > 1 >                                                         ",
"                                                                  3 y t                                                         ",
"                                                                  u i 3                                                         ",
"                                                                  d d 3                                                         ",
"                                                                  f d r                                                         ",
"                                                                  u i r                                                         ",
"                                                                  u u r                                                         ",
"                                                                  s u e                                                         ",
"                                                                  f f r                                                         ",
"                                                                  s d 1                                                         ",
"                                                                  s u t                                                         ",
"                                                                  f f t                                                         ",
"                                                                  s p r                                                         ",
"                                                                  u u r                                                         ",
"                                                                  u u r                                                         ",
"                                                                  f d r                                                         ",
"                                                                  f f e                                                         ",
"                                                                  g d r                                                         ",
"                                                                  g f r                                                         ",
"                                                                  s d 1                                                         ",
"                                                                  * : :                                                         ",
"                                                                                                                                ",
"                                                                                                                                ",
"                                                                                                                                ",
"                                                                                                                                ",
"                                                                                                                                "
};
