/* XPM */
static char * torch1_xpm[] = {
"64 64 118 2",
"  	c #000000",
". 	c #2A130A",
"+ 	c #724F19",
"@ 	c #754717",
"# 	c #753012",
"$ 	c #49240B",
"% 	c #603212",
"& 	c #FBAD39",
"* 	c #FD9633",
"= 	c #F56722",
"- 	c #A84816",
"; 	c #352510",
"> 	c #B87E2B",
", 	c #D17B29",
"' 	c #FC7628",
") 	c #A8501B",
"! 	c #944D19",
"~ 	c #FC862B",
"{ 	c #A55D1B",
"] 	c #934B14",
"^ 	c #DC6E24",
"/ 	c #C6521A",
"( 	c #5B2311",
"_ 	c #EB892E",
": 	c #FC6722",
"< 	c #7D3212",
"[ 	c #C76923",
"} 	c #E06423",
"| 	c #D1581E",
"1 	c #411407",
"2 	c #1B0F07",
"3 	c #B36621",
"4 	c #FC7325",
"5 	c #4C1F0C",
"6 	c #2E2216",
"7 	c #875820",
"8 	c #E79D33",
"9 	c #EC9E35",
"0 	c #FBA639",
"a 	c #FD7926",
"b 	c #ED7D29",
"c 	c #CB7229",
"d 	c #865B19",
"e 	c #FCA636",
"f 	c #E07A28",
"g 	c #B57B2A",
"h 	c #FCBA41",
"i 	c #FC8C2C",
"j 	c #803312",
"k 	c #67290E",
"l 	c #B3812A",
"m 	c #FDC543",
"n 	c #E07A27",
"o 	c #57200F",
"p 	c #D2551C",
"q 	c #B39230",
"r 	c #E05E1D",
"s 	c #5A3514",
"t 	c #F79433",
"u 	c #E1822B",
"v 	c #A14214",
"w 	c #D1892C",
"x 	c #FDB43C",
"y 	c #55451A",
"z 	c #F6C643",
"A 	c #FD6821",
"B 	c #CB501C",
"C 	c #BA511C",
"D 	c #BD9131",
"E 	c #C49C38",
"F 	c #FCB93F",
"G 	c #FCCB45",
"H 	c #FDD549",
"I 	c #FDE54D",
"J 	c #FC8E30",
"K 	c #FDDC4B",
"L 	c #E96121",
"M 	c #DC7A27",
"N 	c #FDC03F",
"O 	c #241007",
"P 	c #FB9E35",
"Q 	c #FCD747",
"R 	c #F5A236",
"S 	c #DC7C2A",
"T 	c #BC6823",
"U 	c #574F1E",
"V 	c #F3E14C",
"W 	c #090401",
"X 	c #010101",
"Y 	c #442A0B",
"Z 	c #4E330D",
"` 	c #5D4E18",
" .	c #614715",
"..	c #5D4214",
"+.	c #3A260B",
"@.	c #35220C",
"#.	c #422E12",
"$.	c #563A14",
"%.	c #4A2E0B",
"&.	c #412608",
"*.	c #3A250A",
"=.	c #362613",
"-.	c #5B3F18",
";.	c #3C2305",
">.	c #341C02",
",.	c #684C20",
"'.	c #2C1703",
").	c #593D16",
"!.	c #412607",
"~.	c #3D2307",
"{.	c #2D1A07",
"].	c #261505",
"^.	c #3D290E",
"/.	c #533711",
"(.	c #51340E",
"_.	c #3D2B10",
":.	c #443610",
"<.	c #1C0D05",
"                                                                                                                                ",
"                                                        . + @ # $                                                               ",
"                                                        % & * = -                                                               ",
"                                                        ; > , ' )                                                               ",
"                                                            ! ~ {                                                               ",
"                                                            ] ~ ^ / (                                                           ",
"                                                            ! _ ' : <                                                           ",
"                                                            $ ] [ ~ } | 1                                                       ",
"                                                              2 3 ~ 4 = 5 6                                                     ",
"                                                            7 8 9 0 a : b c                                                     ",
"                                                            d 9 0 e ~ ' ~ f                                                     ",
"                                                                g e h h i f                                                     ",
"                                                        . j k   l & h m ~ n                                                     ",
"                                                        o = p   q m m m 4 r                                                     ",
"                                                        s t u v w x h m 4 r - j                                                 ",
"                                                        y z & A a ~ h m 4 : : B                                                 ",
"                                                  v C D E m F 0 F m m m 0 e A /                                                 ",
"                                                  | A h m m m G H I G m m h A /                                                 ",
"                                                  k < _ J m m m G G K I m h A /                                                 ",
"                                                      L a m m m m m K I m F : /                                                 ",
"                                                      b i G G I H m G m * u o 1                                                 ",
"                                                      M _ N G I H m m m i n                                                     ",
"                                                      O s ~ P N Q I H m J M                                                     ",
"                                                        s R x Q Q I H G S T                                                     ",
"                                                        U I I I I I I V y                                                       ",
"                                                  W X Y Z Z `  . . . ...Z Z +.                                                  ",
"                                                      @.#.$.%.Z %.&.&.%.Z *.*.                                                  ",
"                                                        =.-.Y &.;.>.>.>.;.                                                      ",
"                                                            ,...&.&.>.'.                                                        ",
"                                                            ,.).Y ;.;.@.                                                        ",
"                                                            -.$.Z >.;.;.                                                        ",
"                                                            ..).Z !.&.@.                                                        ",
"                                                            @.*.;.;.'.                                                          ",
"                                                              '.>.>.~.                                                          ",
"                                                              {.!.&.'.                                                          ",
"                                                              @.%.&.].                                                          ",
"                                                              ^./.&.].                                                          ",
"                                                              #.-.&.].                                                          ",
"                                                              *.(.&.].                                                          ",
"                                                              @.(.&.].                                                          ",
"                                                              *.Z &.].                                                          ",
"                                                              #.).&.].                                                          ",
"                                                              ^.$.&.].                                                          ",
"                                                              ^.(.&.].                                                          ",
"                                                              #.).&.].                                                          ",
"                                                              ^./.&.].                                                          ",
"                                                              ^.Z !.].                                                          ",
"                                                              @.Z !.].                                                          ",
"                                                              _.$.!.].                                                          ",
"                                                              #...&.].                                                          ",
"                                                              :.-.&.].                                                          ",
"                                                              #.-.&.'.                                                          ",
"                                                              _.$.!.<.                                                          ",
"                                                                >.>.                                                            ",
"                                                                                                                                ",
"                                                                                                                                ",
"                                                                                                                                ",
"                                                                                                                                ",
"                                                                                                                                ",
"                                                                                                                                ",
"                                                                                                                                ",
"                                                                                                                                ",
"                                                                                                                                ",
"                                                                                                                                "};
