/* XPM */
static char * torch4_xpm[] = {
"64 64 121 2",
"  	c #000000",
". 	c #A84316",
"+ 	c #AD4918",
"@ 	c #BA4B1B",
"# 	c #C1511A",
"$ 	c #D8AD3C",
"% 	c #A2812B",
"& 	c #F0A439",
"* 	c #B37B29",
"= 	c #7D521E",
"- 	c #84581E",
"; 	c #F16521",
"> 	c #B44A16",
", 	c #CE892F",
"' 	c #D79231",
") 	c #F3B23D",
"! 	c #B6872E",
"~ 	c #492C10",
"{ 	c #63531A",
"] 	c #A88830",
"^ 	c #F4C142",
"/ 	c #B5902F",
"( 	c #967B2A",
"_ 	c #FCC542",
": 	c #B38E31",
"< 	c #080201",
"[ 	c #DA9032",
"} 	c #FCB43D",
"| 	c #3D2B10",
"1 	c #1B0E08",
"2 	c #4B1D0E",
"3 	c #93391A",
"4 	c #DD7126",
"5 	c #FB9D35",
"6 	c #BB4214",
"7 	c #82230A",
"8 	c #FA7A26",
"9 	c #D15C1F",
"0 	c #A04116",
"a 	c #731D06",
"b 	c #F1862C",
"c 	c #FC5C1C",
"d 	c #B74014",
"e 	c #5D3212",
"f 	c #FA8A2B",
"g 	c #DC6121",
"h 	c #9A7D2A",
"i 	c #F9A936",
"j 	c #FCA737",
"k 	c #FBBA3D",
"l 	c #362C0A",
"m 	c #FCBE40",
"n 	c #FD9632",
"o 	c #C2862D",
"p 	c #9E772A",
"q 	c #C16923",
"r 	c #532A0E",
"s 	c #F1AE3B",
"t 	c #EA7D28",
"u 	c #9C5E21",
"v 	c #915A21",
"w 	c #FD852C",
"x 	c #6D3711",
"y 	c #EABA41",
"z 	c #CFA237",
"A 	c #FD6720",
"B 	c #6C290F",
"C 	c #C99F37",
"D 	c #E39634",
"E 	c #E9842D",
"F 	c #1C0D05",
"G 	c #D8591F",
"H 	c #A44519",
"I 	c #443610",
"J 	c #715A1F",
"K 	c #FBAB3B",
"L 	c #EC882D",
"M 	c #FD7F2C",
"N 	c #A84718",
"O 	c #FDDB4A",
"P 	c #FDE44E",
"Q 	c #6B541C",
"R 	c #985319",
"S 	c #FDCC45",
"T 	c #E07527",
"U 	c #9C4515",
"V 	c #FD7125",
"W 	c #D86D23",
"X 	c #FCD648",
"Y 	c #351C0A",
"Z 	c #F18E2F",
"` 	c #FDD447",
" .	c #6D3812",
"..	c #F2DC4D",
"+.	c #D8CA45",
"@.	c #442A0B",
"#.	c #4E330D",
"$.	c #5D4E18",
"%.	c #614715",
"&.	c #5D4214",
"*.	c #3A260B",
"=.	c #35220C",
"-.	c #422E12",
";.	c #563A14",
">.	c #4A2E0B",
",.	c #412608",
"'.	c #3A250A",
").	c #362613",
"!.	c #5B3F18",
"~.	c #3C2305",
"{.	c #341C02",
"].	c #684C20",
"^.	c #2C1703",
"/.	c #593D16",
"(.	c #412607",
"_.	c #3D2307",
":.	c #2D1A07",
"<.	c #261505",
"[.	c #3D290E",
"}.	c #533711",
"|.	c #51340E",
"                                                                                                                                ",
"                                                                                                                                ",
"                                                                                                                                ",
"                                                                                                                                ",
"                                                                                                                                ",
"                                                                                                                                ",
"                                                                                                                                ",
"                                                                    . +                                                         ",
"                                                                    @ #                                                         ",
"                                                                                                                                ",
"                                                                                                                                ",
"                                                                                                                                ",
"                                                                                                                                ",
"                                                            $ %                                                                 ",
"                                                            & *     = -                                                         ",
"                                                            ; >     , '                                                         ",
"                                                            ) !     ~ ~                                                         ",
"                                                        { ] ^ /                                                                 ",
"                                                        ( _ _ :   <                                                             ",
"                                                      [ } _ | 1 2 ; 3                                                           ",
"                                                      4 5 _ 6 7 ~ 8 9 0                                                         ",
"                                                      a b _ c d e f 8 g                                                         ",
"                                                        h _ _ } i j k $                                                         ",
"                                                        l h ) m } n o p q r                                                     ",
"                                                            [ s m t u v w x                                                     ",
"                                                              : y 1 z } A B                                                     ",
"                                                            C D E F z } A G H                                                   ",
"                                                        I J m K L J $ m M g N                                                   ",
"                                                        % _ _ O P _ O P _ Q                                                     ",
"                                                        R b _ S S _ S S _ T N                                                   ",
"                                                        U V _ S S _ S S } W H                                                   ",
"                                                        R f ^ X P _ O X w x                                                     ",
"                                                        Y B Z } S O ` m w  .                                                    ",
"                                                            s _ X P O y q r                                                     ",
"                                                            ..P P P P +.                                                        ",
"                                                      @.#.#.$.%.%.%.%.&.#.#.*.                                                  ",
"                                                      =.-.;.>.#.>.,.,.>.#.'.'.                                                  ",
"                                                        ).!.@.,.~.{.{.{.~.                                                      ",
"                                                            ].&.,.,.{.^.                                                        ",
"                                                            ]./.@.~.~.=.                                                        ",
"                                                            !.;.#.{.~.~.                                                        ",
"                                                            &./.#.(.,.=.                                                        ",
"                                                            =.'.~.~.^.                                                          ",
"                                                              ^.{.{._.                                                          ",
"                                                              :.(.,.^.                                                          ",
"                                                              =.>.,.<.                                                          ",
"                                                              [.}.,.<.                                                          ",
"                                                              -.!.,.<.                                                          ",
"                                                              '.|.,.<.                                                          ",
"                                                              =.|.,.<.                                                          ",
"                                                              '.#.,.<.                                                          ",
"                                                              -./.,.<.                                                          ",
"                                                              [.;.,.<.                                                          ",
"                                                              [.|.,.<.                                                          ",
"                                                              -./.,.<.                                                          ",
"                                                              [.}.,.<.                                                          ",
"                                                              [.#.(.<.                                                          ",
"                                                              =.#.(.<.                                                          ",
"                                                              | ;.(.<.                                                          ",
"                                                              -.&.,.<.                                                          ",
"                                                              I !.,.<.                                                          ",
"                                                              -.!.,.^.                                                          ",
"                                                              | ;.(.F                                                           ",
"                                                                {.{.                                                            "};
