/* XPM */
static char *result[] = {
/* columns rows colors chars-per-pixel */
"64 64 137 2 ",
"   c black",
".  c #0D0502",
"X  c #120302",
"o  c #140B08",
"O  c #1B1005",
"+  c #2C0906",
"@  c #241204",
"#  c #2D1906",
"$  c #2B1C0B",
"%  c #341C02",
"&  c #341E08",
"*  c #3C2205",
"=  c #34210C",
"-  c #3D260A",
";  c #3A2615",
":  c #3D2A11",
">  c #4D1007",
",  c #4C1D0B",
"<  c #6A1D0B",
"1  c #422607",
"2  c #452807",
"3  c #422608",
"4  c #4B220B",
"5  c #442C0D",
"6  c #502A0F",
"7  c #5B2B0F",
"8  c #4D320C",
"9  c #50340E",
"0  c #442D12",
"q  c #592310",
"w  c #473013",
"e  c #4D3210",
"r  c #513714",
"t  c #563B13",
"y  c #593D17",
"u  c #543C19",
"i  c #5A3F19",
"p  c #5D4817",
"a  c #5C4119",
"s  c #6E4418",
"d  c #744016",
"f  c #7E531E",
"g  c #694F21",
"h  c #766C29",
"j  c #8F290C",
"k  c #93260F",
"l  c #90280D",
"z  c #992B0D",
"x  c #833512",
"c  c #963411",
"v  c #A8300F",
"b  c #A73010",
"n  c #B13210",
"m  c #BD3713",
"M  c #864919",
"N  c #8E4F18",
"B  c #934416",
"V  c #9B4014",
"C  c #8F5E1F",
"Z  c #A44117",
"A  c #AB4817",
"S  c #B04918",
"D  c #BB4E19",
"F  c #AF571B",
"G  c #A45D1D",
"H  c #B05F1F",
"J  c #8C6C27",
"K  c #906421",
"L  c #8F762A",
"P  c #847D29",
"I  c #987D2B",
"U  c #A16E24",
"Y  c #B66320",
"T  c #A47426",
"R  c #C0501B",
"E  c #C8551C",
"W  c #DD5D1E",
"Q  c #EC4514",
"!  c #F64715",
"~  c #F54815",
"^  c #E15118",
"/  c #E65F1C",
"(  c #FA5C1D",
")  c #D36621",
"_  c #CF7A2A",
"`  c #D27326",
"'  c #E66622",
"]  c #F66720",
"[  c #FD6A22",
"{  c #E07A29",
"}  c #FA7525",
"|  c #F77B29",
" . c #FB7D29",
".. c #9D812E",
"X. c #A3822C",
"o. c #AE8532",
"O. c #AB9433",
"+. c #AA9A36",
"@. c #ACA138",
"#. c #B1A336",
"$. c #B6A739",
"%. c #D1892E",
"&. c #DB882D",
"*. c #C49E34",
"=. c #DF9832",
"-. c #E2822B",
";. c #ED812B",
":. c #FA842B",
">. c #FA8A2D",
",. c #FB9532",
"<. c #FB9A34",
"1. c #CBA437",
"2. c #CAA839",
"3. c #D8AC3B",
"4. c #CEB93E",
"5. c #D5B13D",
"6. c #D0BA3E",
"7. c #E7AF3B",
"8. c #EFAE3B",
"9. c #FDA637",
"0. c #FCA936",
"q. c #FBA738",
"w. c #FCAD3B",
"e. c #EBBA3F",
"r. c #FCB53C",
"t. c #FCB93D",
"y. c #F2BB40",
"u. c #FBBD41",
"i. c #E0CF45",
"p. c #EDCB47",
"a. c #F4C242",
"s. c #FDC442",
"d. c #FDCD45",
"f. c #F0D649",
"g. c #FCD348",
"h. c #FCDA4A",
"j. c #FDE44D",
/* pixels */
"                                                                                                                                ",
"                                                                                                                                ",
"                                                                                                                                ",
"                                                                y.I     E R                                                     ",
"                                                                w.T     Z V                                                     ",
"                                                                >.G                                                             ",
"                                                                a.X.                                                            ",
"                                                            d Y >.U                                                             ",
"                                                          , F :.Q z                                                             ",
"                                                          W ( ! +                                                               ",
"                                                          x c k         n v                                                     ",
"                                                                        m m < X                                                 ",
"                                                                          l ~ >                                                 ",
"                                                                        D ' | ,                                                 ",
"                                                          f K J     ; C -.:. .4                                                 ",
"                                                          =.r.a.$   s q.s.w.] ,                                                 ",
"                                                          ^ E p o @.p.>. .) q                                                   ",
"                                                          b j   ..5.s.,.,._                                                     ",
"                                                                s.r.q.9.u.1.@                                                   ",
"                                                                0.t.u.>.M N ;.4                                                 ",
"                                                                r.u.e.H o.%.} 4 P #.                                            ",
"                                                            @ ; s.s.7.. 3.w.[ 7 $.f.                                            ",
"                                                            U 0.s.<./ . 3.q.[ 9.t.e.                                            ",
"                                                          S &.t.s.s.y.*.8.r.w.d.2.L                                             ",
"                                                          { <.t.s.h.h.s.t.t.s.g.O.                                              ",
"                                                          i.s.[ s.s.s.s.s.s.s.[ A                                               ",
"                                                          h _ :.s.g.g.s.g.d.<.B q                                               ",
"                                                            M ` u.d.h.g.h.s.>.4                                                 ",
"                                                                >.q.d.j.g.r.>.4                                                 ",
"                                                                h.h.j.j.j.6.6                                                   ",
"                                                          $ = = 4.4.6.6.4.+.& = O                                               ",
"                                                          5 9 9 9 8 9 9 9 9 9 r =                                               ",
"                                                            : a 2 3 3 % % * *                                                   ",
"                                                            $ 0 i e * * % % #                                                   ",
"                                                                g y 1 * % #                                                     ",
"                                                                a t 8 % * =                                                     ",
"                                                                a t 8 * 1 &                                                     ",
"                                                                u r 8 * - &                                                     ",
"                                                                  @ % %                                                         ",
"                                                                  % * *                                                         ",
"                                                                  & 5 1 .                                                       ",
"                                                                  - 8 2 .                                                       ",
"                                                                  0 t 3 .                                                       ",
"                                                                  0 t 3 .                                                       ",
"                                                                  - 8 1 .                                                       ",
"                                                                  - 8 2 .                                                       ",
"                                                                  0 t 3 .                                                       ",
"                                                                  0 y 1 .                                                       ",
"                                                                  - 8 2 .                                                       ",
"                                                                  0 t 1 .                                                       ",
"                                                                  0 y 1 .                                                       ",
"                                                                  - 8 1 .                                                       ",
"                                                                  - 8 3 .                                                       ",
"                                                                  5 9 3 .                                                       ",
"                                                                  w y 3 .                                                       ",
"                                                                  w y 3 .                                                       ",
"                                                                  w y 2 .                                                       ",
"                                                                  w y 1 .                                                       ",
"                                                                  # * %                                                         ",
"                                                                    @ @                                                         ",
"                                                                                                                                ",
"                                                                                                                                ",
"                                                                                                                                ",
"                                                                                                                                "
};
