/* XPM */
static char *result[] = {
/* columns rows colors chars-per-pixel */
"64 64 169 2 ",
"   c black",
".  c #060201",
"X  c #1B0C03",
"o  c #1B0E04",
"O  c #320E09",
"+  c #201006",
"@  c #241105",
"#  c #281402",
"$  c #2A1504",
"%  c #2F1903",
"&  c #2D1D09",
"*  c #331A01",
"=  c #321B01",
"-  c #341B01",
";  c #341C03",
":  c #351E03",
">  c #361E03",
",  c #331D07",
"<  c #361D04",
"1  c #371E04",
"2  c #391F04",
"3  c #301F0E",
"4  c #362007",
"5  c #3B2104",
"6  c #3B2205",
"7  c #3C2205",
"8  c #3D2306",
"9  c #3F2406",
"0  c #3F2407",
"q  c #3F2507",
"w  c #35220A",
"e  c #3A2509",
"r  c #38240B",
"t  c #39240B",
"y  c #38240C",
"u  c #39280F",
"i  c #3E280C",
"p  c #3D2A0E",
"a  c #322312",
"s  c #332710",
"d  c #382610",
"f  c #372F10",
"g  c #4E1406",
"h  c #491E0E",
"j  c #402507",
"k  c #402607",
"l  c #412607",
"z  c #422607",
"x  c #412608",
"c  c #40270B",
"v  c #47240E",
"b  c #432808",
"n  c #432B0A",
"m  c #422B0B",
"M  c #442C0A",
"N  c #472C0A",
"B  c #4B2F0B",
"V  c #4A2F0C",
"C  c #4B2F0C",
"Z  c #4B300C",
"A  c #4B300D",
"S  c #49300F",
"D  c #4D320D",
"F  c #4D330D",
"G  c #4E330C",
"H  c #4F330C",
"J  c #4E320D",
"K  c #4F330D",
"L  c #52360F",
"P  c #453310",
"I  c #493210",
"U  c #493211",
"Y  c #4A3211",
"T  c #4D3210",
"R  c #4C3413",
"E  c #4C3513",
"W  c #4E3715",
"Q  c #4F3715",
"!  c #503512",
"~  c #523713",
"^  c #523714",
"/  c #553912",
"(  c #533815",
")  c #543815",
"_  c #553915",
"`  c #543916",
"'  c #62280B",
"]  c #69290F",
"[  c #6F2D0E",
"{  c #5C4019",
"}  c #5C4119",
"|  c #62481C",
" . c #654A1F",
".. c #78521B",
"X. c #7B571C",
"o. c #85230F",
"O. c #92290C",
"+. c #992B0D",
"@. c #A42E10",
"#. c #A52F10",
"$. c #B03210",
"%. c #8C4C1A",
"&. c #994316",
"*. c #975019",
"=. c #A54315",
"-. c #A84415",
";. c #AA4F1A",
":. c #B66420",
">. c #A17F2B",
",. c #C24112",
"<. c #C3511A",
"1. c #C6541C",
"2. c #F44715",
"3. c #E25F20",
"4. c #C36A22",
"5. c #C56A22",
"6. c #C56A24",
"7. c #D57D29",
"8. c #FB6720",
"9. c #FD7D27",
"0. c #FB7D29",
"q. c #938A2F",
"w. c #A2822C",
"e. c #AA882F",
"r. c #AC8B2F",
"t. c #BCAB39",
"y. c #C7842C",
"u. c #C8872C",
"i. c #DD8C2D",
"p. c #DA9A33",
"a. c #FD9D35",
"s. c #C3A739",
"d. c #C2AE3A",
"f. c #C4AE38",
"g. c #D3A639",
"h. c #D8AE3B",
"j. c #F7A136",
"k. c #FCA936",
"l. c #FDA638",
"z. c #E6B83E",
"x. c #FBB53F",
"c. c #FDBB40",
"v. c #D6C143",
"b. c #DCCD47",
"n. c #F5C242",
"m. c #F8C443",
"M. c #FCC843",
"N. c #FDC945",
"B. c #FCCC45",
"V. c #EDD948",
"C. c #FCD247",
"Z. c #FCD447",
"A. c #F4D348",
"S. c #FDD248",
"D. c #FDD648",
"F. c #FDD748",
"G. c #F6DC4C",
"H. c #FDD949",
"J. c #F8DE4C",
"K. c #FBE04D",
"L. c #FBE24F",
"P. c #FCE04C",
"I. c #FDE04C",
"U. c #FDE14C",
"Y. c #FCE24D",
"T. c #FDE34D",
"R. c #FDE54C",
"E. c #FEE54D",
"W. c #FDE64E",
/* pixels */
"                                                                                                                                ",
"                                                                                                                                ",
"                                                                                                                                ",
"                                                                                                                                ",
"                                                                                                                                ",
"                                                                          #.+.                                                  ",
"                                                                          $.@.                                                  ",
"                                                                                                                                ",
"                                                                                                                                ",
"                                                                                                                                ",
"                                                                                                                                ",
"                                                                                                                                ",
"                                                                                                                                ",
"                                                                  *.%.                                                          ",
"                                                                  4.:.                                                          ",
"                                                                                                                                ",
"                                                                                                                                ",
"                                                                                                                                ",
"                                                                                                                                ",
"                                                                                                                                ",
"                                                                    X.u.                                                        ",
"                                                                    ..y.O.g                                                     ",
"                                                                      h 2.o.                                                    ",
"                                                                    q.V.O                                                       ",
"                                                          w.>.    -.p.J.1.]                                                     ",
"                                                          r.e.    7.x.P.0.;.'                                                   ",
"                                                                  v.W.L.k.9.<.                                                  ",
"                                                              u z.m.Z.R.U.N.j.3.                                                ",
"                                                              p n.S.F.D.E.c.i.=.                                                ",
"                                                              s h.A.H.B.I.l.6.                                                  ",
"                                                                  g.C.T.M.a.5.                                                  ",
"                                                              f b.G.Y.K.8.&.v                                                   ",
"                                                          & r P t.f.d.s.,.[ y w                                                 ",
"                                                          i F L K H H J J G D S                                                 ",
"                                                            d } z x 7 * = 8 ,                                                   ",
"                                                              3 | T j 8 - @                                                     ",
"                                                                 .~ b 5 2 .                                                     ",
"                                                                { / N ; l o                                                     ",
"                                                                } / B k z o                                                     ",
"                                                                a e 6 > +                                                       ",
"                                                                  % 1 <                                                         ",
"                                                                  4 x 0                                                         ",
"                                                                  m V q                                                         ",
"                                                                  Y ! q                                                         ",
"                                                                  R ^ q                                                         ",
"                                                                  M Z q                                                         ",
"                                                                  n A q                                                         ",
"                                                                  U ! q                                                         ",
"                                                                  E ( 0                                                         ",
"                                                                  M Z q                                                         ",
"                                                                  E ( q                                                         ",
"                                                                  I ! q                                                         ",
"                                                                  n A 0                                                         ",
"                                                                  n C 0                                                         ",
"                                                                  R ^ 0                                                         ",
"                                                                  W ` 0                                                         ",
"                                                                  W ) 0                                                         ",
"                                                                  Q _ 9                                                         ",
"                                                                  t c :                                                         ",
"                                                                  X $ #                                                         ",
"                                                                                                                                ",
"                                                                                                                                ",
"                                                                                                                                ",
"                                                                                                                                "
};
