/* XPM */
static char * torch3_xpm[] = {
"64 64 140 2",
"  	c #000000",
". 	c #BF9833",
"+ 	c #ECBA41",
"@ 	c #170A05",
"# 	c #54210C",
"$ 	c #9F3C16",
"% 	c #9F6920",
"& 	c #785F1F",
"* 	c #913813",
"= 	c #FC6A22",
"- 	c #FCAC3A",
"; 	c #F6C443",
"> 	c #1B1005",
", 	c #4B1B0D",
"' 	c #8B3611",
") 	c #885C20",
"! 	c #8C6C24",
"~ 	c #332411",
"{ 	c #34220B",
"] 	c #DCB13C",
"^ 	c #CEA73C",
"/ 	c #654418",
"( 	c #976722",
"_ 	c #C49B36",
": 	c #B38D33",
"< 	c #823513",
"[ 	c #743011",
"} 	c #BE7C2A",
"| 	c #F7A937",
"1 	c #513312",
"2 	c #2A0E07",
"3 	c #EB6220",
"4 	c #D5581C",
"5 	c #6F4B19",
"6 	c #341B0C",
"7 	c #29130A",
"8 	c #EA7528",
"9 	c #ED7126",
"0 	c #C7531D",
"a 	c #70300E",
"b 	c #EB812A",
"c 	c #FC7B28",
"d 	c #F66622",
"e 	c #8B3B14",
"f 	c #B27C2C",
"g 	c #EB9E33",
"h 	c #FCA235",
"i 	c #D99031",
"j 	c #A57127",
"k 	c #C4822B",
"l 	c #F99F35",
"m 	c #D4872C",
"n 	c #130703",
"o 	c #673312",
"p 	c #7B3E13",
"q 	c #D47427",
"r 	c #0F0406",
"s 	c #C66F24",
"t 	c #F6852E",
"u 	c #0B0402",
"v 	c #9F541F",
"w 	c #AE6D23",
"x 	c #EA7D29",
"y 	c #FB7525",
"z 	c #FDC643",
"A 	c #FD9131",
"B 	c #270C07",
"C 	c #1C1403",
"D 	c #E6B941",
"E 	c #E68B2C",
"F 	c #E25F22",
"G 	c #361509",
"H 	c #E55F1E",
"I 	c #B54C1B",
"J 	c #5C4919",
"K 	c #95752B",
"L 	c #70551D",
"M 	c #937427",
"N 	c #F49232",
"O 	c #CE581E",
"P 	c #FDDC4C",
"Q 	c #FCE84C",
"R 	c #FDCC45",
"S 	c #D4A93B",
"T 	c #FB8A2D",
"U 	c #834816",
"V 	c #836B21",
"W 	c #B68F2E",
"X 	c #F29A35",
"Y 	c #FDD647",
"Z 	c #E8B73E",
"` 	c #E2B33D",
" .	c #E26522",
"..	c #B45F1E",
"+.	c #5B3010",
"@.	c #BA9133",
"#.	c #FA832B",
"$.	c #C8531E",
"%.	c #514119",
"&.	c #FDE44E",
"*.	c #FBB33C",
"=.	c #762F14",
"-.	c #EA9033",
";.	c #FED549",
">.	c #7B4118",
",.	c #7C5B1B",
"'.	c #FCBC3E",
").	c #CF9432",
"!.	c #B46322",
"~.	c #7A7025",
"{.	c #908631",
"].	c #442A0B",
"^.	c #4E330D",
"/.	c #5D4E18",
"(.	c #614715",
"_.	c #5D4214",
":.	c #3A260B",
"<.	c #35220C",
"[.	c #422E12",
"}.	c #563A14",
"|.	c #4A2E0B",
"1.	c #412608",
"2.	c #3A250A",
"3.	c #362613",
"4.	c #5B3F18",
"5.	c #3C2305",
"6.	c #341C02",
"7.	c #684C20",
"8.	c #2C1703",
"9.	c #593D16",
"0.	c #412607",
"a.	c #3D2307",
"b.	c #2D1A07",
"c.	c #261505",
"d.	c #3D290E",
"e.	c #533711",
"f.	c #51340E",
"g.	c #3D2B10",
"h.	c #443610",
"i.	c #1C0D05",
"                                                                                                                                ",
"                                                                                                                                ",
"                                                                                                                                ",
"                                                                                                                                ",
"                                                                                                                                ",
"                                                                                                                                ",
"                                                                                                                                ",
"                                                                                                                                ",
"                                                                                                                                ",
"                                                                        . + @                                                   ",
"                                                                                                                                ",
"                                                                    # $ % &                                                     ",
"                                                                    * = - ; >                                                   ",
"                                                                    , ' ) !                                                     ",
"                                                        ~ {                                                                     ",
"                                                        ] ^                                                                     ",
"                                                    / ( _ :       < [                                                           ",
"                                                    } | 1       2 3 4                                                           ",
"                                                    5 ( 6       7 8 9 0 a                                                       ",
"                                                                6 b c d e                                                       ",
"                                                              f g h i , 2                                                       ",
"                                                              j k l m n o p                                                     ",
"                                                                7 b q r s t u                                                   ",
"                                                                  v w . x y u                                                   ",
"                                                                    ! z A d B                                                   ",
"                                                          C D E F G ! z A = H I                                                 ",
"                                                        J K z h t L M ] N c = O o 6                                             ",
"                                                        D z z P Q R S r _ z = y T U                                             ",
"                                                    V W X - z R Y z Z : ` z =  ...+.                                            ",
"                                                    @.z c #.z z z z z z z z d $.                                                ",
"                                                    %.L b A z Y P z R &.*.A =.#                                                 ",
"                                                        q -.+ Y P R ;.&.- #.u                                                   ",
"                                                          >.T - z &.P z h #.@                                                   ",
"                                                          ,.'.z Y &.&.;.).!.                                                    ",
"                                                          ~.&.&.Q &.&.&.{.                                                      ",
"                                                      ].^.^./.(.(.(.(._.^.^.:.                                                  ",
"                                                      <.[.}.|.^.|.1.1.|.^.2.2.                                                  ",
"                                                        3.4.].1.5.6.6.6.5.                                                      ",
"                                                            7._.1.1.6.8.                                                        ",
"                                                            7.9.].5.5.<.                                                        ",
"                                                            4.}.^.6.5.5.                                                        ",
"                                                            _.9.^.0.1.<.                                                        ",
"                                                            <.2.5.5.8.                                                          ",
"                                                              8.6.6.a.                                                          ",
"                                                              b.0.1.8.                                                          ",
"                                                              <.|.1.c.                                                          ",
"                                                              d.e.1.c.                                                          ",
"                                                              [.4.1.c.                                                          ",
"                                                              2.f.1.c.                                                          ",
"                                                              <.f.1.c.                                                          ",
"                                                              2.^.1.c.                                                          ",
"                                                              [.9.1.c.                                                          ",
"                                                              d.}.1.c.                                                          ",
"                                                              d.f.1.c.                                                          ",
"                                                              [.9.1.c.                                                          ",
"                                                              d.e.1.c.                                                          ",
"                                                              d.^.0.c.                                                          ",
"                                                              <.^.0.c.                                                          ",
"                                                              g.}.0.c.                                                          ",
"                                                              [._.1.c.                                                          ",
"                                                              h.4.1.c.                                                          ",
"                                                              [.4.1.8.                                                          ",
"                                                              g.}.0.i.                                                          ",
"                                                                6.6.                                                            "};
