/* XPM */
static char *result[] = {
/* columns rows colors chars-per-pixel */
"64 64 118 2 ",
"   c black",
".  c #0D0502",
"X  c #120603",
"o  c #1B0F07",
"O  c #1B1004",
"+  c #1B1009",
"@  c #241007",
"#  c #2A130A",
"$  c #2C1B0A",
"%  c #331B02",
"&  c #3A1F05",
"*  c #301F0B",
"=  c #3C2206",
"-  c #34220C",
";  c #3D2409",
":  c #3F2809",
">  c #352510",
",  c #411407",
"<  c #4C1F0C",
"1  c #412606",
"2  c #432907",
"3  c #412608",
"4  c #49240B",
"5  c #442B0A",
"6  c #4A2D0B",
"7  c #57200F",
"8  c #4F330E",
"9  c #50350E",
"0  c #492F10",
"q  c #5B2311",
"w  c #4D3616",
"e  c #493C16",
"r  c #513411",
"t  c #5A3514",
"y  c #543914",
"u  c #5A3E16",
"i  c #5A3F1B",
"p  c #67290E",
"a  c #603212",
"s  c #753012",
"d  c #7D3212",
"f  c #55451A",
"g  c #5C421A",
"h  c #574F1E",
"j  c #60461B",
"k  c #754717",
"l  c #724F19",
"z  c #634720",
"x  c #6C5021",
"c  c #803312",
"v  c #934B14",
"b  c #944D19",
"n  c #865B19",
"m  c #A14214",
"M  c #A84816",
"N  c #A8501B",
"B  c #A55D1B",
"V  c #BA511C",
"C  c #875820",
"Z  c #B36621",
"A  c #BC6823",
"S  c #B57B2A",
"D  c #B87E2B",
"F  c #C6521A",
"G  c #CB501C",
"H  c #D2551C",
"J  c #D1581E",
"K  c #E05E1D",
"L  c #C76923",
"P  c #DC6E24",
"I  c #CB7229",
"U  c #DC7A27",
"Y  c #D17B29",
"T  c #DC7C2A",
"R  c #E06423",
"E  c #E96121",
"W  c #F56722",
"Q  c #FC6722",
"!  c #FD6821",
"~  c #E07A27",
"^  c #E07A28",
"/  c #ED7D29",
"(  c #FC7325",
")  c #FD7926",
"_  c #FC7628",
"`  c #B3812A",
"'  c #B39230",
"]  c #BD9131",
"[  c #D1892C",
"{  c #C49C38",
"}  c #E1822B",
"|  c #EB892E",
" . c #FC862B",
".. c #FC8C2C",
"X. c #FC8E30",
"o. c #E79D33",
"O. c #EC9E35",
"+. c #F79433",
"@. c #FD9633",
"#. c #FB9E35",
"$. c #C4B23F",
"%. c #CCB63C",
"&. c #F5A236",
"*. c #FCA636",
"=. c #FBA639",
"-. c #FBAD39",
";. c #FDB43C",
":. c #FCB93F",
">. c #FDC03F",
",. c #FCBA41",
"<. c #F6C643",
"1. c #FDC543",
"2. c #FCCB45",
"3. c #FCD747",
"4. c #FDD549",
"5. c #FDDC4B",
"6. c #F3E14C",
"7. c #FDE54D",
/* pixels */
"                                                                                                                                ",
"                                                        # l k s 4                                                               ",
"                                                        a -.@.W M                                                               ",
"                                                        > D Y _ N                                                               ",
"                                                            b  .B                                                               ",
"                                                            v  .P F q                                                           ",
"                                                            b | _ Q d                                                           ",
"                                                            4 v L  .R J ,                                                       ",
"                                                              o Z  .( W < X                                                     ",
"                                                            C o.O.=.) Q / I                                                     ",
"                                                            n O.=.*. ._  .^                                                     ",
"                                                                S *.,.,...^                                                     ",
"                                                        # c p   ` -.,.1. .~                                                     ",
"                                                        7 W H   ' 1.1.1.( K                                                     ",
"                                                        t +.} m [ ;.,.1.( K M c                                                 ",
"                                                        f <.-.! )  .,.1.( Q Q G                                                 ",
"                                                  m V ] { 1.:.=.:.1.1.1.=.*.! F                                                 ",
"                                                  J ! ,.1.1.1.2.4.7.2.1.1.,.! F                                                 ",
"                                                  p d | X.1.1.1.2.2.5.7.1.,.! F                                                 ",
"                                                      E ) 1.1.1.1.1.5.7.1.:.Q F                                                 ",
"                                                      / ..2.2.7.4.1.2.1.@.} 7 ,                                                 ",
"                                                      U | >.2.7.4.1.1.1...~                                                     ",
"                                                      @ t  .#.>.3.7.4.1.X.U                                                     ",
"                                                        t &.;.3.3.7.4.2.T A                                                     ",
"                                                        h 7.7.7.7.7.7.6.f                                                       ",
"                                                  $ - - f $.%.%.%.%.%.$.e $ * $                                                 ",
"                                                  5 9 9 8 8 8 8 r 8 9 9 9 9 9 5                                                 ",
"                                                  $ * y y 6 6 6 6 1 1 1 5 5 - #                                                 ",
"                                                      g i 3 3 : = % % % 2 ;                                                     ",
"                                                      $ > z g 3 = = % % X                                                       ",
"                                                        # x g 2 1 1 % %                                                         ",
"                                                        + g g 8 2 % = :                                                         ",
"                                                        o j u 9 2 % = =                                                         ",
"                                                        o g u 9 6 3 1 3                                                         ",
"                                                          y w 6 2 : & -                                                         ",
"                                                              % % %                                                             ",
"                                                            . = = &                                                             ",
"                                                            O 1 1 3 .                                                           ",
"                                                            $ 8 5 3 .                                                           ",
"                                                            $ 8 6 1 .                                                           ",
"                                                            - g 9 1 .                                                           ",
"                                                            > g r 3 .                                                           ",
"                                                            * 9 6 1 .                                                           ",
"                                                            $ 9 6 1 .                                                           ",
"                                                            $ 8 6 1 .                                                           ",
"                                                            * y 6 1 .                                                           ",
"                                                            - g r 3 .                                                           ",
"                                                            - u 9 3 .                                                           ",
"                                                            $ 8 6 1 .                                                           ",
"                                                            - u 8 1 .                                                           ",
"                                                            - g r 1 .                                                           ",
"                                                            - y 6 1 .                                                           ",
"                                                            * r 6 1 .                                                           ",
"                                                            $ r 6 1 .                                                           ",
"                                                            - r 6 1 .                                                           ",
"                                                            - g r 1 .                                                           ",
"                                                            - g r 1 .                                                           ",
"                                                            > g r 1 .                                                           ",
"                                                            > g r 1 .                                                           ",
"                                                            - g r 1 X                                                           ",
"                                                            $ 0 : & .                                                           ",
"                                                              % % %                                                             ",
"                                                                                                                                ",
"                                                                                                                                "
};
