/* XPM */
static char *result[] = {
/* columns rows colors chars-per-pixel */
"64 64 120 2 ",
"   c black",
".  c #0D0501",
"X  c #120403",
"o  c #170B03",
"O  c #1C0D05",
"+  c #1B0E08",
"@  c #261505",
"#  c #2C1703",
"$  c #2D1A07",
"%  c #341C02",
"&  c #351C0A",
"*  c #3C2305",
"=  c #35220C",
"-  c #3A250A",
";  c #3D290E",
":  c #362613",
">  c #3D2B10",
",  c #4B1D0E",
"<  c #412607",
"1  c #412608",
"2  c #442A0B",
"3  c #4A2E0B",
"4  c #532A0E",
"5  c #4E330D",
"6  c #51340E",
"7  c #422E12",
"8  c #492C10",
"9  c #443610",
"0  c #533711",
"q  c #5D3212",
"w  c #563A14",
"e  c #593D16",
"r  c #5B3F18",
"t  c #6C290F",
"y  c #6D3711",
"u  c #6D3812",
"i  c #5D4214",
"p  c #5D4E18",
"a  c #614715",
"s  c #63531A",
"d  c #6B541C",
"f  c #7D521E",
"g  c #715A1F",
"h  c #684C20",
"j  c #82230A",
"k  c #93391A",
"l  c #D13C14",
"z  c #9C4515",
"x  c #84581E",
"c  c #985319",
"v  c #A04116",
"b  c #A84316",
"n  c #A44519",
"m  c #A84718",
"M  c #AD4918",
"N  c #B74014",
"B  c #BB4214",
"V  c #B44A16",
"C  c #BA4B1B",
"Z  c #915A21",
"A  c #9C5E21",
"S  c #9E772A",
"D  c #967B2A",
"F  c #9A7D2A",
"G  c #B37B29",
"H  c #C1511A",
"J  c #D15C1F",
"K  c #D8591F",
"L  c #FC5C1C",
"P  c #C16923",
"I  c #DC6121",
"U  c #D86D23",
"Y  c #DD7126",
"T  c #F16521",
"R  c #FD6720",
"E  c #E07527",
"W  c #EA7D28",
"Q  c #FD7125",
"!  c #FA7A26",
"~  c #FD7F2C",
"^  c #A2812B",
"/  c #B6872E",
"(  c #B5902F",
")  c #A88830",
"_  c #B38E31",
"`  c #C2862D",
"'  c #CE892F",
"]  c #C99F37",
"[  c #D79231",
"{  c #DA9032",
"}  c #E9842D",
"|  c #EC882D",
" . c #F1862C",
".. c #FD852C",
"X. c #F18E2F",
"o. c #FA8A2B",
"O. c #E39634",
"+. c #FD9632",
"@. c #FB9D35",
"#. c #CFA237",
"$. c #D8AD3C",
"%. c #FCA737",
"&. c #F9A936",
"*. c #F0A439",
"=. c #F1AE3B",
"-. c #FBAB3B",
";. c #F3B23D",
":. c #FCB43D",
">. c #FBBA3D",
",. c #EABA41",
"<. c #FCBE40",
"1. c #D8CA45",
"2. c #F4C142",
"3. c #FCC542",
"4. c #FDCC45",
"5. c #FDD447",
"6. c #FCD648",
"7. c #F2DC4D",
"8. c #FDDB4A",
"9. c #FDE44E",
/* pixels */
"                                                                                                                                ",
"                                                                                                                                ",
"                                                                                                                                ",
"                                                                      b M                                                       ",
"                                                                      C H                                                       ",
"                                                                                                                                ",
"                                                                                                                                ",
"                                                                                                                                ",
"                                                                                                                                ",
"                                                              $.^                                                               ",
"                                                              *.G     f x                                                       ",
"                                                              T V     ' [                                                       ",
"                                                              ;./     8 8                                                       ",
"                                                          s ) 2.(                                                               ",
"                                                          D 3.3._   X                                                           ",
"                                                        { :.3.> + , T k                                                         ",
"                                                        Y @.3.B j 8 ! J v                                                       ",
"                                                        l  .3.L N q o.! I                                                       ",
"                                                          F 3.3.:.&.%.>.$.                                                      ",
"                                                          p F ;.<.:.+.` S P 4                                                   ",
"                                                              { =.<.W A Z ..y                                                   ",
"                                                                _ ,.+ #.:.R t                                                   ",
"                                                              ] O.} O #.:.R K n                                                 ",
"                                                          9 g <.-.| g $.<.~ I m                                                 ",
"                                                          ^ 3.3.8.9.3.8.9.3.d                                                   ",
"                                                          c  .3.4.4.3.4.4.3.E m                                                 ",
"                                                          z Q 3.4.4.3.4.4.:.U n                                                 ",
"                                                          c o.2.6.9.3.8.6...y                                                   ",
"                                                          & t X.:.4.8.5.<...u                                                   ",
"                                                              =.3.6.9.8.,.P 4                                                   ",
"                                                              7.9.9.9.9.1.                                                      ",
"                                                        2 5 5 p a a a a i 5 5 ;                                                 ",
"                                                        = 7 w 3 5 3 1 1 3 5 - $                                                 ",
"                                                          : r 2 1 * % % % *                                                     ",
"                                                              h i 1 1 % #                                                       ",
"                                                              h e 2 * * =                                                       ",
"                                                              r w 5 % * *                                                       ",
"                                                              i e 5 < 1 =                                                       ",
"                                                              = - * * # o                                                       ",
"                                                                # % % .                                                         ",
"                                                                $ < 1 #                                                         ",
"                                                                = 3 1 @                                                         ",
"                                                                ; 0 1 @                                                         ",
"                                                                7 r 1 @                                                         ",
"                                                                - 6 1 @                                                         ",
"                                                                = 6 1 @                                                         ",
"                                                                - 5 1 @                                                         ",
"                                                                7 e 1 @                                                         ",
"                                                                ; w 1 @                                                         ",
"                                                                ; 6 1 @                                                         ",
"                                                                7 e 1 @                                                         ",
"                                                                ; 0 1 @                                                         ",
"                                                                ; 5 < @                                                         ",
"                                                                = 5 < @                                                         ",
"                                                                > w < @                                                         ",
"                                                                7 i 1 @                                                         ",
"                                                                9 r 1 @                                                         ",
"                                                                7 r 1 #                                                         ",
"                                                                > w < O                                                         ",
"                                                                + % %                                                           ",
"                                                                                                                                ",
"                                                                                                                                ",
"                                                                                                                                ",
"                                                                                                                                "
};
