/* XPM */
static char * torch5_xpm[] = {
"64 64 137 2",
"  	c #000000",
". 	c #F2BB40",
"+ 	c #987D2B",
"@ 	c #C8551C",
"# 	c #C0501B",
"$ 	c #FCAD3B",
"% 	c #A47426",
"& 	c #A44117",
"* 	c #9B4014",
"= 	c #FA8A2D",
"- 	c #A45D1D",
"; 	c #F4C242",
"> 	c #A3822C",
", 	c #744016",
"' 	c #B66320",
") 	c #A16E24",
"! 	c #4C1D0B",
"~ 	c #AF571B",
"{ 	c #FA842B",
"] 	c #EC4514",
"^ 	c #992B0D",
"/ 	c #DD5D1E",
"( 	c #FA5C1D",
"_ 	c #F64715",
": 	c #2C0906",
"< 	c #833512",
"[ 	c #963411",
"} 	c #93260F",
"| 	c #B13210",
"1 	c #A8300F",
"2 	c #BD3713",
"3 	c #6A1D0B",
"4 	c #90280D",
"5 	c #F54815",
"6 	c #4D1007",
"7 	c #BB4E19",
"8 	c #E66622",
"9 	c #F77B29",
"0 	c #7E531E",
"a 	c #906421",
"b 	c #8C6C27",
"c 	c #3A2615",
"d 	c #8F5E1F",
"e 	c #E2822B",
"f 	c #FB7D29",
"g 	c #4B220B",
"h 	c #DF9832",
"i 	c #FCB53C",
"j 	c #2B1C0B",
"k 	c #6E4418",
"l 	c #FBA738",
"m 	c #FDC442",
"n 	c #F66720",
"o 	c #E15118",
"p 	c #5D4817",
"q 	c #ACA138",
"r 	c #EDCB47",
"s 	c #D36621",
"t 	c #592310",
"u 	c #A73010",
"v 	c #8F290C",
"w 	c #9D812E",
"x 	c #D5B13D",
"y 	c #FB9532",
"z 	c #CF7A2A",
"A 	c #FDA637",
"B 	c #FBBD41",
"C 	c #CBA437",
"D 	c #241204",
"E 	c #FCA936",
"F 	c #FCB93D",
"G 	c #864919",
"H 	c #8E4F18",
"I 	c #ED812B",
"J 	c #EBBA3F",
"K 	c #B05F1F",
"L 	c #9D782C",
"M 	c #D1892E",
"N 	c #FA7525",
"O 	c #847D29",
"P 	c #B1A336",
"Q 	c #E7AF3B",
"R 	c #D8AC3B",
"S 	c #FD6A22",
"T 	c #5B2B0F",
"U 	c #B6A739",
"V 	c #F0D649",
"W 	c #FB9A34",
"X 	c #E65F1C",
"Y 	c #B04918",
"Z 	c #DB882D",
"` 	c #C49E34",
" .	c #EFAE3B",
"..	c #FDCD45",
"+.	c #CAA839",
"@.	c #8F762A",
"#.	c #E07A29",
"$.	c #FCDA4A",
"%.	c #FCD348",
"&.	c #AB9433",
"*.	c #E0CF45",
"=.	c #AB4817",
"-.	c #665D22",
";.	c #934416",
">.	c #D27326",
",.	c #FDE44D",
"'.	c #D0BA3E",
").	c #502A0F",
"!.	c #442A0B",
"~.	c #4E330D",
"{.	c #5D4E18",
"].	c #614715",
"^.	c #5D4214",
"/.	c #3A260B",
"(.	c #35220C",
"_.	c #422E12",
":.	c #563A14",
"<.	c #4A2E0B",
"[.	c #412608",
"}.	c #3A250A",
"|.	c #362613",
"1.	c #5B3F18",
"2.	c #3C2305",
"3.	c #341C02",
"4.	c #684C20",
"5.	c #2C1703",
"6.	c #593D16",
"7.	c #412607",
"8.	c #3D2307",
"9.	c #2D1A07",
"0.	c #261505",
"a.	c #3D290E",
"b.	c #533711",
"c.	c #51340E",
"d.	c #3D2B10",
"e.	c #443610",
"f.	c #1C0D05",
"                                                                                                                                ",
"                                                                                                                                ",
"                                                                                                                                ",
"                                                                                                                                ",
"                                                                                                                                ",
"                                                                                                                                ",
"                                                                                                                                ",
"                                                                                                                                ",
"                                                            . +     @ #                                                         ",
"                                                            $ %     & *                                                         ",
"                                                            = -                                                                 ",
"                                                            ; >                                                                 ",
"                                                        , ' = )                                                                 ",
"                                                      ! ~ { ] ^                                                                 ",
"                                                      / ( _ :                                                                   ",
"                                                      < [ }         | 1                                                         ",
"                                                                    2 2 3                                                       ",
"                                                                      4 5 6                                                     ",
"                                                                    7 8 9 !                                                     ",
"                                                      0 a b     c d e { f g                                                     ",
"                                                      h i ; j   k l m $ n !                                                     ",
"                                                      o @ p   q r = f s t                                                       ",
"                                                      u v   w x m y y z                                                         ",
"                                                            m i l A B C D                                                       ",
"                                                            E F B = G H I g                                                     ",
"                                                            i B J K L M N g O P                                                 ",
"                                                        D c m m Q   R $ S T U V                                                 ",
"                                                        ) E m W X   R l S A F J                                                 ",
"                                                      Y Z F m m . `  .i $ ..+.@.                                                ",
"                                                      #.W F m $.$.m F F m %.&.                                                  ",
"                                                      *.m S m m m m m m m S =.                                                  ",
"                                                      -.z { m %.%.m %...W ;.t                                                   ",
"                                                        G >.B ..$.%.$.m = g                                                     ",
"                                                            = l ..,.%.i = g                                                     ",
"                                                            $.$.,.,.,.'.).                                                      ",
"                                                      !.~.~.{.].].].].^.~.~./.                                                  ",
"                                                      (._.:.<.~.<.[.[.<.~.}.}.                                                  ",
"                                                        |.1.!.[.2.3.3.3.2.                                                      ",
"                                                            4.^.[.[.3.5.                                                        ",
"                                                            4.6.!.2.2.(.                                                        ",
"                                                            1.:.~.3.2.2.                                                        ",
"                                                            ^.6.~.7.[.(.                                                        ",
"                                                            (.}.2.2.5.                                                          ",
"                                                              5.3.3.8.                                                          ",
"                                                              9.7.[.5.                                                          ",
"                                                              (.<.[.0.                                                          ",
"                                                              a.b.[.0.                                                          ",
"                                                              _.1.[.0.                                                          ",
"                                                              }.c.[.0.                                                          ",
"                                                              (.c.[.0.                                                          ",
"                                                              }.~.[.0.                                                          ",
"                                                              _.6.[.0.                                                          ",
"                                                              a.:.[.0.                                                          ",
"                                                              a.c.[.0.                                                          ",
"                                                              _.6.[.0.                                                          ",
"                                                              a.b.[.0.                                                          ",
"                                                              a.~.7.0.                                                          ",
"                                                              (.~.7.0.                                                          ",
"                                                              d.:.7.0.                                                          ",
"                                                              _.^.[.0.                                                          ",
"                                                              e.1.[.0.                                                          ",
"                                                              _.1.[.5.                                                          ",
"                                                              d.:.7.f.                                                          ",
"                                                                3.3.                                                            "};
