/* XPM */
static char *result[] = {
/* columns rows colors chars-per-pixel */
"64 64 117 2 ",
"   c black",
".  c #0D0302",
"X  c #160504",
"o  c #170C04",
"O  c #1B0C03",
"+  c #191306",
"@  c #1E1609",
"#  c #210D04",
"$  c #360D0A",
"%  c #2D1907",
"&  c #20100B",
"*  c #2C130A",
"=  c #291B0A",
"-  c #331B02",
";  c #381F06",
":  c #3B1B0B",
">  c #3D2306",
",  c #37250B",
"<  c #3A240B",
"1  c #33280C",
"2  c #3E290F",
"3  c #2B2310",
"4  c #372311",
"5  c #3A2914",
"6  c #3D3310",
"7  c #43120B",
"8  c #412507",
"9  c #422709",
"0  c #452B0A",
"q  c #4A2F0A",
"w  c #4E330E",
"e  c #50350E",
"r  c #5C350D",
"t  c #422C11",
"y  c #493511",
"u  c #553A13",
"i  c #5A3C14",
"p  c #5A3F19",
"a  c #7E200C",
"s  c #732F11",
"d  c #753F15",
"f  c #5B4214",
"g  c #5B4119",
"h  c #60461E",
"j  c #64491E",
"k  c #724C19",
"l  c #6B6723",
"z  c #982B0E",
"x  c #843613",
"c  c #8A3811",
"v  c #A92F0E",
"b  c #B43211",
"n  c #BD3611",
"m  c #C43810",
"M  c #8D4C19",
"N  c #A74517",
"B  c #AF471A",
"V  c #A64918",
"C  c #B14C19",
"Z  c #A4561B",
"A  c #A55A1E",
"S  c #AE5C1D",
"D  c #BD501B",
"F  c #B55D1E",
"G  c #B2611F",
"H  c #A36922",
"J  c #B66623",
"K  c #AF7127",
"L  c #B17A27",
"P  c #C2541A",
"I  c #E74315",
"U  c #F24515",
"Y  c #DA792A",
"T  c #E76321",
"R  c #ED6521",
"E  c #F16622",
"W  c #F76C25",
"Q  c #FC6C24",
"!  c #FD7929",
"~  c #9F9435",
"^  c #A9852C",
"/  c #AB882D",
"(  c #A8A035",
")  c #B2A137",
"_  c #B3A73A",
"`  c #D4862E",
"'  c #C09A37",
"]  c #D69230",
"[  c #FC8127",
"{  c #F0852C",
"}  c #FB8329",
"|  c #F6892E",
" . c #FC8A2C",
".. c #E69330",
"X. c #F59631",
"o. c #F89632",
"O. c #F4A436",
"+. c #FBA534",
"@. c #FBA935",
"#. c #FAA539",
"$. c #FCAA39",
"%. c #E4B73D",
"&. c #E8B53C",
"*. c #F4B53F",
"=. c #FBB43C",
"-. c #FBBD3F",
";. c #EBB841",
":. c #FDBE40",
">. c #EDC042",
",. c #F4C343",
"<. c #FDC442",
"1. c #FDC944",
"2. c #EAD84A",
"3. c #FDD549",
"4. c #FDDF4B",
"5. c #FDE34D",
"6. c #F9E550",
/* pixels */
"                                                                                                                                ",
"                                                                                                                                ",
"                                                                                                                                ",
"                                                                                                                                ",
"                                                                                                                                ",
"                                                              7 $                                                               ",
"                                                            X I n                                                               ",
"                                                          a m U n                                                               ",
"                                                          z U U b                                                               ",
"                                                                                                                                ",
"                                                              J M                                                               ",
"                                                            . Y J y                                                             ",
"                                                                / >.,                                                           ",
"                                                                K #.P x                                                         ",
"                                                          + 1   S } E N                                                         ",
"                                                          ~ 6.6 S { :                                                           ",
"                                                          l ( 3 d A L F b                                                       ",
"                                                                  * O.[ U .                                                     ",
"                                                                  = O.} U .                                                     ",
"                                                              B c = ,.] v                                                       ",
"                                                        @ . X R D 4 2.) #                                                       ",
"                                                        %.' o ;.+.W 5.=.R X                                                     ",
"                                                        ..] _ ,.<.=.5.-.| C s                                                   ",
"                                                        R $.4.1.3.5.5.1.@.Q V *                                                 ",
"                                                        &.$.Q :.<.1.5.5.5.<.o.T                                                 ",
"                                                        ^ ` ! <.1.3.3.4.5.$.Y B                                                 ",
"                                                          Z  .<.3.5.1.3.5. .A                                                   ",
"                                                          H @. .$.1.5.3.<. .A                                                   ",
"                                                          k L *.1.3.5.<.X.G d                                                   ",
"                                                            & 2.5.5.5.@.U X                                                     ",
"                                                        w w w f f f i i r y w w                                                 ",
"                                                        , t u q q w 0 0 0 q 9 ,                                                 ",
"                                                          5 g 0 8 8 - - - > =                                                   ",
"                                                              j g 8 8 - -                                                       ",
"                                                              h p 0 > > ;                                                       ",
"                                                              p i w - > >                                                       ",
"                                                              g p e > > 8                                                       ",
"                                                              t 0 0 > ; %                                                       ",
"                                                                o - - #                                                         ",
"                                                                % > 8 %                                                         ",
"                                                                1 0 8 %                                                         ",
"                                                                < w 8 %                                                         ",
"                                                                9 p 9 %                                                         ",
"                                                                5 p 8 %                                                         ",
"                                                                < e 9 %                                                         ",
"                                                                < e 8 %                                                         ",
"                                                                < u 8 %                                                         ",
"                                                                t g 9 %                                                         ",
"                                                                < e 9 %                                                         ",
"                                                                2 u 9 %                                                         ",
"                                                                9 g 9 %                                                         ",
"                                                                < u 9 %                                                         ",
"                                                                < w 8 %                                                         ",
"                                                                < w 8 %                                                         ",
"                                                                2 g 0 %                                                         ",
"                                                                9 g 8 %                                                         ",
"                                                                t g 9 %                                                         ",
"                                                                t g 9 %                                                         ",
"                                                                , u > %                                                         ",
"                                                                O - - O                                                         ",
"                                                                                                                                ",
"                                                                                                                                ",
"                                                                                                                                ",
"                                                                                                                                "
};
