/* XPM */
static char * torch2_xpm[] = {
"64 64 121 2",
"  	c #000000",
". 	c #7D6523",
"+ 	c #A07E2E",
"@ 	c #C19C34",
"# 	c #F5C142",
"$ 	c #652810",
"% 	c #DC5C1D",
"& 	c #ECA435",
"* 	c #FCC442",
"= 	c #773817",
"- 	c #FD7C27",
"; 	c #FDA436",
"> 	c #F5BC41",
", 	c #775D1F",
"' 	c #FBC749",
") 	c #F6842B",
"! 	c #A64419",
"~ 	c #B05A23",
"{ 	c #AF8A2D",
"] 	c #E0B03D",
"^ 	c #F5A737",
"/ 	c #E15E1E",
"( 	c #B38E2F",
"_ 	c #E17728",
": 	c #FB7C29",
"< 	c #EC6221",
"[ 	c #994E1C",
"} 	c #5D4219",
"| 	c #30100A",
"1 	c #793314",
"2 	c #4D1E0A",
"3 	c #483213",
"4 	c #78531D",
"5 	c #E8862C",
"6 	c #FB892D",
"7 	c #FC661F",
"8 	c #B2521C",
"9 	c #764017",
"0 	c #672B0E",
"a 	c #FB6721",
"b 	c #A34413",
"c 	c #9E6C23",
"d 	c #FBA836",
"e 	c #FD9B32",
"f 	c #F9832B",
"g 	c #AC4718",
"h 	c #D06420",
"i 	c #F7A836",
"j 	c #A17124",
"k 	c #5A3F18",
"l 	c #946524",
"m 	c #EA9D33",
"n 	c #FCAB39",
"o 	c #FC9532",
"p 	c #D1581E",
"q 	c #F57927",
"r 	c #9B802C",
"s 	c #240A05",
"t 	c #DE9D39",
"u 	c #210A07",
"v 	c #F46622",
"w 	c #B94D19",
"x 	c #30200B",
"y 	c #61531B",
"z 	c #27130A",
"A 	c #F58F30",
"B 	c #D7792B",
"C 	c #9C3D17",
"D 	c #FCBC40",
"E 	c #9A4219",
"F 	c #6E2F11",
"G 	c #664E1B",
"H 	c #A0852D",
"I 	c #251C0B",
"J 	c #5E3012",
"K 	c #E59C36",
"L 	c #DAAD38",
"M 	c #FDCB44",
"N 	c #FCD247",
"O 	c #FCBD3E",
"P 	c #FCB43D",
"Q 	c #FC6922",
"R 	c #F69E34",
"S 	c #FEDD4B",
"T 	c #DC812C",
"U 	c #FDD649",
"V 	c #B34B1A",
"W 	c #833513",
"X 	c #CAB63B",
"Y 	c #2F1E09",
"Z 	c #F78E2F",
"` 	c #989033",
" .	c #442A0B",
"..	c #4E330D",
"+.	c #5D4E18",
"@.	c #614715",
"#.	c #5D4214",
"$.	c #3A260B",
"%.	c #35220C",
"&.	c #422E12",
"*.	c #563A14",
"=.	c #4A2E0B",
"-.	c #412608",
";.	c #3A250A",
">.	c #362613",
",.	c #5B3F18",
"'.	c #3C2305",
").	c #341C02",
"!.	c #684C20",
"~.	c #2C1703",
"{.	c #593D16",
"].	c #412607",
"^.	c #3D2307",
"/.	c #2D1A07",
"(.	c #261505",
"_.	c #3D290E",
":.	c #533711",
"<.	c #51340E",
"[.	c #3D2B10",
"}.	c #443610",
"|.	c #1C0D05",
"                                                                                                                                ",
"                                                                                                                                ",
"                                                                                                                                ",
"                                                                                                                                ",
"                                                                                                                                ",
"                                                                                                                                ",
"                                                                                                                                ",
"                                                                                                                                ",
"                                                                                                                                ",
"                                                                                                                                ",
"                                                                                                                                ",
"                                                                                                                                ",
"                                                                        . +                                                     ",
"                                                                        @ #                                                     ",
"                                                                    $ % & *                                                     ",
"                                                                    = - ; >                                                     ",
"                                                                    , ' ; )                                                     ",
"                                                                  ! ~ { ] ^                                                     ",
"                                                                  / %   ( #                                                     ",
"                                                                  _ : < [ }                                                     ",
"                                                    | 1 2     3 4 5 6 7 8 9                                                     ",
"                                                    0 a b     c d d e a - f                                                     ",
"                                                  g h i j     k l m ; n o f                                                     ",
"                                                  p q * r   | s   t d * ; f                                                     ",
"                                                          u v w   ] * * o v                                                     ",
"                                                    x r y z A B C m D * o a E F                                                 ",
"                                                    G * H I # ; 7 f o * o a a w                                                 ",
"                                                    J f K L * M N O O * O P Q w                                                 ",
"                                                    F - R D * N S M * M * * Q w                                                 ",
"                                                    G * e a * * * * * * * * a w                                                 ",
"                                                    3 ( T - * M S M M U D i V W                                                 ",
"                                                          6 * N X M M X P )                                                     ",
"                                                        Y J Z d M S S * ; )                                                     ",
"                                                          z ; P N X X N K B                                                     ",
"                                                          I S X X X X X `                                                       ",
"                                                       .....+.@.@.@.@.#.....$.                                                  ",
"                                                      %.&.*.=...=.-.-.=...;.;.                                                  ",
"                                                        >.,. .-.'.).).).'.                                                      ",
"                                                            !.#.-.-.).~.                                                        ",
"                                                            !.{. .'.'.%.                                                        ",
"                                                            ,.*...).'.'.                                                        ",
"                                                            #.{...].-.%.                                                        ",
"                                                            %.;.'.'.~.                                                          ",
"                                                              ~.).).^.                                                          ",
"                                                              /.].-.~.                                                          ",
"                                                              %.=.-.(.                                                          ",
"                                                              _.:.-.(.                                                          ",
"                                                              &.,.-.(.                                                          ",
"                                                              ;.<.-.(.                                                          ",
"                                                              %.<.-.(.                                                          ",
"                                                              ;...-.(.                                                          ",
"                                                              &.{.-.(.                                                          ",
"                                                              _.*.-.(.                                                          ",
"                                                              _.<.-.(.                                                          ",
"                                                              &.{.-.(.                                                          ",
"                                                              _.:.-.(.                                                          ",
"                                                              _...].(.                                                          ",
"                                                              %...].(.                                                          ",
"                                                              [.*.].(.                                                          ",
"                                                              &.#.-.(.                                                          ",
"                                                              }.,.-.(.                                                          ",
"                                                              &.,.-.~.                                                          ",
"                                                              [.*.].|.                                                          ",
"                                                                ).).                                                            "};
