/* XPM */
static char * torch6_xpm[] = {
"64 64 127 2",
"  	c #000000",
". 	c #3A0D07",
"+ 	c #84220C",
"@ 	c #F24714",
"# 	c #651B0B",
"$ 	c #5C1709",
"% 	c #B2330E",
"& 	c #481308",
"* 	c #962B11",
"= 	c #CE3B11",
"- 	c #D33B12",
"; 	c #261509",
"> 	c #341E07",
", 	c #A16F24",
"' 	c #F3A238",
") 	c #B33112",
"! 	c #D5852A",
"~ 	c #FBB43D",
"{ 	c #241807",
"] 	c #E14215",
"^ 	c #FD9431",
"/ 	c #FCC443",
"( 	c #260709",
"_ 	c #A6852E",
": 	c #6B551F",
"< 	c #250C09",
"[ 	c #42170B",
"} 	c #271404",
"| 	c #923D13",
"1 	c #F56522",
"2 	c #561F0B",
"3 	c #A34516",
"4 	c #574419",
"5 	c #BE9733",
"6 	c #5E4A19",
"7 	c #954617",
"8 	c #FA7A2A",
"9 	c #C2541D",
"0 	c #D85A1E",
"a 	c #FB6621",
"b 	c #74571C",
"c 	c #7B6021",
"d 	c #301E0D",
"e 	c #9A551C",
"f 	c #FB892C",
"g 	c #FC6A22",
"h 	c #ED6322",
"i 	c #230B07",
"j 	c #74300D",
"k 	c #7A330E",
"l 	c #C08229",
"m 	c #FCA639",
"n 	c #FCA637",
"o 	c #FD571A",
"p 	c #B93511",
"q 	c #4E1E0B",
"r 	c #92621F",
"s 	c #C4862C",
"t 	c #DF802B",
"u 	c #BBAF3C",
"v 	c #44190D",
"w 	c #1D0906",
"x 	c #956622",
"y 	c #FDAD37",
"z 	c #FCDB4B",
"A 	c #261D0A",
"B 	c #833611",
"C 	c #662A13",
"D 	c #95892F",
"E 	c #FDE44D",
"F 	c #FDB93B",
"G 	c #988E2F",
"H 	c #845419",
"I 	c #C96522",
"J 	c #BF882D",
"K 	c #FDD548",
"L 	c #C04F18",
"M 	c #ECD149",
"N 	c #896E24",
"O 	c #907329",
"P 	c #DDB13B",
"Q 	c #FC7426",
"R 	c #AE4718",
"S 	c #783212",
"T 	c #AC4917",
"U 	c #754A17",
"V 	c #FDD146",
"W 	c #6E5B20",
"X 	c #EFBD42",
"Y 	c #FA862B",
"Z 	c #C66D23",
"` 	c #FC9C35",
" .	c #170B05",
"..	c #DE8F2C",
"+.	c #F3AC3A",
"@.	c #E67D29",
"#.	c #85792D",
"$.	c #B7AD39",
"%.	c #442A0B",
"&.	c #4E330D",
"*.	c #5D4E18",
"=.	c #614715",
"-.	c #5D4214",
";.	c #3A260B",
">.	c #35220C",
",.	c #422E12",
"'.	c #563A14",
").	c #4A2E0B",
"!.	c #412608",
"~.	c #3A250A",
"{.	c #362613",
"].	c #5B3F18",
"^.	c #3C2305",
"/.	c #341C02",
"(.	c #684C20",
"_.	c #2C1703",
":.	c #593D16",
"<.	c #412607",
"[.	c #3D2307",
"}.	c #2D1A07",
"|.	c #261505",
"1.	c #3D290E",
"2.	c #533711",
"3.	c #51340E",
"4.	c #3D2B10",
"5.	c #443610",
"6.	c #1C0D05",
"                                                                                                                                ",
"                                                                                                                                ",
"                                                                                                                                ",
"                                                                                                                                ",
"                                                                                                                                ",
"                                                                                                                                ",
"                                                              .                                                                 ",
"                                                            + @ #                                                               ",
"                                                            $ % &                                                               ",
"                                                                                                                                ",
"                                                                                                                                ",
"                                                          * *                                                                   ",
"                                                          = -           ; >                                                     ",
"                                                                        , ' ;                                                   ",
"                                                                      ) ! ~ {                                                   ",
"                                                                      ] ^ / {                                                   ",
"                                                                      ( _ / {                                                   ",
"                                                                        : _                                                     ",
"                                                                  < [   } [                                                     ",
"                                                                  | 1 2 3 1 <                                                   ",
"                                                      4 5 6       7 8 9 0 a <                                                   ",
"                                                      b / c     d e f g 1 h i                                                   ",
"                                                      j g k     l m n o p i                                                     ",
"                                                      q 3 q     r s m o t u                                                     ",
"                                                            i v w x y a m z A                                                   ",
"                                                            B a C D E E F a <                                                   ",
"                                                    G u 5 6 H n I J E K y g L B                                                 ",
"                                                    u M / N O P f n E P n Q a R                                                 ",
"                                                      S a P z / E E E P / P g T                                                 ",
"                                                      U m m ~ P V z E z V / g T                                                 ",
"                                                      W X Y Y / P V E E V / 1 3                                                 ",
"                                                          Z ` / z z / E / Y  .                                                  ",
"                                                          ! ` n P V z V ~ Y ;                                                   ",
"                                                          s ..^ / V E P +.@.w                                                   ",
"                                                            #.E E E E E $.                                                      ",
"                                                      %.&.&.*.=.=.=.=.-.&.&.;.                                                  ",
"                                                      >.,.'.).&.).!.!.).&.~.~.                                                  ",
"                                                        {.].%.!.^./././.^.                                                      ",
"                                                            (.-.!.!./._.                                                        ",
"                                                            (.:.%.^.^.>.                                                        ",
"                                                            ].'.&./.^.^.                                                        ",
"                                                            -.:.&.<.!.>.                                                        ",
"                                                            >.~.^.^._.                                                          ",
"                                                              _././.[.                                                          ",
"                                                              }.<.!._.                                                          ",
"                                                              >.).!.|.                                                          ",
"                                                              1.2.!.|.                                                          ",
"                                                              ,.].!.|.                                                          ",
"                                                              ~.3.!.|.                                                          ",
"                                                              >.3.!.|.                                                          ",
"                                                              ~.&.!.|.                                                          ",
"                                                              ,.:.!.|.                                                          ",
"                                                              1.'.!.|.                                                          ",
"                                                              1.3.!.|.                                                          ",
"                                                              ,.:.!.|.                                                          ",
"                                                              1.2.!.|.                                                          ",
"                                                              1.&.<.|.                                                          ",
"                                                              >.&.<.|.                                                          ",
"                                                              4.'.<.|.                                                          ",
"                                                              ,.-.!.|.                                                          ",
"                                                              5.].!.|.                                                          ",
"                                                              ,.].!._.                                                          ",
"                                                              4.'.<.6.                                                          ",
"                                                                /./.                                                            "};
