/* XPM */
static char *result[] = {
/* columns rows colors chars-per-pixel */
"64 64 123 2 ",
"   c #000000",
".  c #0D0402",
"X  c #070509",
"o  c #120702",
"O  c #270C06",
"+  c #240C08",
"@  c #261306",
"#  c #291705",
"$  c #2E1904",
"%  c #27130A",
"&  c #251C0B",
"*  c #2D1C0A",
"=  c #341C02",
"-  c #30100A",
";  c #321C08",
":  c #3F1F0C",
">  c #372006",
",  c #392106",
"<  c #34210A",
"1  c #3A260D",
"2  c #3F2A0B",
"3  c #362611",
"4  c #3B2910",
"5  c #4D1E0A",
"6  c #412607",
"7  c #432907",
"8  c #412608",
"9  c #452B0B",
"0  c #4E320E",
"q  c #50340E",
"w  c #412E13",
"e  c #463114",
"r  c #4A3414",
"t  c #533710",
"y  c #5E3012",
"u  c #553A15",
"i  c #593D16",
"p  c #5A3F18",
"a  c #672B0E",
"s  c #652810",
"d  c #6E2F11",
"f  c #793314",
"g  c #773817",
"h  c #5D4219",
"j  c #664E1B",
"k  c #764017",
"l  c #61531B",
"z  c #78531D",
"x  c #775D1F",
"c  c #70601E",
"v  c #694F22",
"b  c #7D6523",
"n  c #833513",
"m  c #9C3D17",
"M  c #9A4219",
"N  c #994E1C",
"B  c #A34413",
"V  c #A64419",
"C  c #AC4718",
"Z  c #B34B1A",
"A  c #B94D19",
"S  c #B2521C",
"D  c #B05A23",
"F  c #946524",
"G  c #9E6C23",
"H  c #B86620",
"J  c #A17124",
"K  c #A07E2E",
"L  c #D1581E",
"P  c #DC5C1D",
"I  c #E15E1E",
"U  c #FC661F",
"Y  c #D06420",
"T  c #D7792B",
"R  c #EC6221",
"E  c #F46622",
"W  c #FB6721",
"Q  c #FC6922",
"!  c #E17728",
"~  c #F57927",
"^  c #FD7C27",
"/  c #FB7C29",
"(  c #9B802C",
")  c #989033",
"_  c #A0852D",
"`  c #AF8A2D",
"'  c #B38E2F",
"]  c #A79430",
"[  c #AB9633",
"{  c #DC812C",
"}  c #C19C34",
"|  c #DE9D39",
" . c #E8862C",
".. c #F6842B",
"X. c #F9832B",
"o. c #F78E2F",
"O. c #FB892D",
"+. c #F58F30",
"@. c #E59C36",
"#. c #EA9D33",
"$. c #FC9532",
"%. c #F69E34",
"&. c #FD9B32",
"*. c #DAAD38",
"=. c #ECA435",
"-. c #F5A737",
";. c #FDA436",
":. c #F7A836",
">. c #FBA836",
",. c #FCAB39",
"<. c #E0B03D",
"1. c #FCB43D",
"2. c #FCBD3E",
"3. c #F5BC41",
"4. c #FCBC40",
"5. c #F5C142",
"6. c #FCC442",
"7. c #FDCB44",
"8. c #FBC749",
"9. c #FCD247",
"0. c #FDD649",
"q. c #FEDD4B",
"w. c #FDE44C",
/* pixels */
"                                                                                                                                ",
"                                                                                                                                ",
"                                                                                                                                ",
"                                                                                                                                ",
"                                                                          b K                                                   ",
"                                                                          } 5.                                                  ",
"                                                                      s P =.6.                                                  ",
"                                                                      g ^ ;.3.                                                  ",
"                                                                      x 8.;...                                                  ",
"                                                                    V D ` <.-.                                                  ",
"                                                                    I P X ' 5.                                                  ",
"                                                                    ! / R N h                                                   ",
"                                                      - f 5     r z  .O.U S k                                                   ",
"                                                      a W B     G >.>.&.W ^ X.                                                  ",
"                                                    C Y :.J     p F #.;.,.$.X.                                                  ",
"                                                    L ~ 6.(   - O X | >.6.;.X.                                                  ",
"                                                      . .   + E A X <.6.6.$.E                                                   ",
"                                                      4 ( l % +.T m #.4.6.$.W M d                                               ",
"                                                      j 6._ & 5.;.U X.$.6.$.W W A                                               ",
"                                                      y X.@.*.6.7.9.2.2.6.2.1.Q A                                               ",
"                                                      d ^ %.4.6.9.q.7.6.7.6.6.Q A                                               ",
"                                                      j 6.&.W 6.6.6.6.6.6.6.6.W A                                               ",
"                                                      r ' { ^ 6.7.q.7.7.0.4.:.Z n                                               ",
"                                                          H O.6.9.w.7.7.w.1...                                                  ",
"                                                          1 y o.>.7.q.q.6.;...                                                  ",
"                                                            % ;.1.9.w.w.9.@.T                                                   ",
"                                                            & q.w.w.w.w.w.)                                                     ",
"                                                        2 2 4 ] [ [ [ [ [ c 7 2 *                                               ",
"                                                      . 0 q 0 t q q q q r q q q 1                                               ",
"                                                          e h 7 7 7 , = = , 2                                                   ",
"                                                          3 r u 0 6 = = $ = ;                                                   ",
"                                                              v h 8 6 , = .                                                     ",
"                                                              h p 0 , = 6 @                                                     ",
"                                                              h i q , = 7 #                                                     ",
"                                                              h i 0 7 8 6 #                                                     ",
"                                                              w 9 9 2 = $                                                       ",
"                                                                o = = #                                                         ",
"                                                                # 6 , >                                                         ",
"                                                                $ 9 8 ,                                                         ",
"                                                                ; q 9 ,                                                         ",
"                                                                1 i 9 ,                                                         ",
"                                                                4 h 9 :                                                         ",
"                                                                < q 7 >                                                         ",
"                                                                < 0 7 ,                                                         ",
"                                                                < 0 9 >                                                         ",
"                                                                1 h 9 ,                                                         ",
"                                                                4 h 9 >                                                         ",
"                                                                < 0 7 ,                                                         ",
"                                                                1 i 9 >                                                         ",
"                                                                4 h 9 ,                                                         ",
"                                                                > t 9 >                                                         ",
"                                                                > r 7 ,                                                         ",
"                                                                < q 7 ,                                                         ",
"                                                                1 u 9 >                                                         ",
"                                                                4 h 9 ,                                                         ",
"                                                                4 h 9 ,                                                         ",
"                                                                4 h 9 ,                                                         ",
"                                                                3 j 9 >                                                         ",
"                                                                % 9 , =                                                         ",
"                                                                . $ $ #                                                         ",
"                                                                                                                                ",
"                                                                                                                                ",
"                                                                                                                                ",
"                                                                                                                                "
};
